<svg width="85" height="77" viewBox="0 0 85 77" fill="none" xmlns="http://www.w3.org/2000/svg">
<path d="M84.8543 57.5264L84.4269 56.6529L81.6684 54.4885L82.154 54.4109L83.0962 53.285L83.0088 46.7141L82.5814 45.8406L81.0467 44.6371L83.4459 44.2392L84.3881 43.1133L84.3007 36.5424L83.8733 35.6689L71.3141 25.8078L70.4302 25.5846L61.4067 27.0793V27.0501L61.3873 27.0307C61.2124 26.7201 61.0473 26.4581 60.8628 26.1669C60.6296 25.8078 60.3868 25.4778 60.144 25.1575L58.9978 23.6822L61.9604 22.8863L62.7957 21.7799L62.7471 18.674V18.6255L62.6888 17.7131V17.6452V17.6258C62.6888 17.5481 62.6694 17.4608 62.65 17.354V17.3152L62.4849 16.4999V16.4611C62.3974 16.1311 62.31 15.8108 62.1935 15.5099C62.174 15.4711 62.1546 15.4226 62.1352 15.374C62.1158 15.3255 62.0866 15.2673 62.0478 15.1799L62.0283 15.1217C61.9798 15.0052 61.9215 14.8693 61.8632 14.7431C61.8147 14.6461 61.7661 14.5587 61.7078 14.4714L61.6884 14.4326C61.6592 14.384 61.6301 14.3258 61.601 14.2773L61.5427 14.1802L61.5233 14.1414C61.4164 13.9764 61.2999 13.8114 61.1639 13.6464C61.125 13.5882 61.0765 13.5396 61.0085 13.462L60.9308 13.3649C60.9308 13.3649 60.8531 13.2776 60.8142 13.2387C60.6782 13.1029 60.5519 12.9767 60.4257 12.8602C60.3383 12.7923 60.2605 12.7146 60.1731 12.6467L48.2551 3.29027C47.138 2.41675 45.7296 1.95087 44.1852 1.95087C43.7481 1.95087 43.3013 1.98969 42.8448 2.05763C42.6117 2.09646 42.3883 2.14499 42.1649 2.19352L39.6492 0.223234L38.775 0L32.3449 1.01911L31.393 2.13528V4.27056L10.5485 7.71613L9.60633 8.84201V9.36612L8.44075 8.44407L7.55685 8.22083L0.942178 9.30789L0 10.4338L0.369101 38.0177L0.407953 38.0857L0.378814 38.1245L0.738201 65.7084L1.16558 66.582L13.7247 76.4431L14.6086 76.6663L21.1844 75.5793L26.4393 74.7154L51.9169 70.5128L52.6551 69.6393C53.5099 69.9984 54.4618 70.1828 55.472 70.1828C55.9188 70.1828 56.385 70.144 56.8512 70.0761C57.2106 70.0178 57.5797 69.9305 57.9585 69.814C58.0459 69.7849 58.1334 69.7558 58.2208 69.7266L58.3082 69.6975C58.5413 69.6199 58.7647 69.5325 58.9881 69.4355C59.0658 69.4064 59.1338 69.3772 59.2018 69.3481H59.2212C59.2892 69.3093 59.3475 69.2802 59.4446 69.2219C59.5709 69.154 59.7069 69.0861 59.8623 68.9987C59.94 68.9599 60.0177 68.9211 60.0857 68.8725C60.144 68.8337 60.2217 68.7852 60.2897 68.7367L60.3577 68.6881H60.3771C60.4354 68.6396 60.4937 68.6008 60.5714 68.5425C60.6199 68.5134 60.6588 68.4843 60.7074 68.4455C60.9016 68.2999 61.0765 68.164 61.2416 68.0184H61.261L61.3096 67.9602C61.4164 67.8728 61.5427 67.7564 61.6787 67.6205C61.7467 67.5525 61.8049 67.4943 61.8632 67.4264L62.0478 67.2322L62.0672 67.2031C62.0672 67.2031 62.1449 67.1158 62.174 67.077L63.6116 68.2028L64.4955 68.4261L71.1102 67.3293L71.5278 66.8343L71.5958 66.8828L72.4797 67.1061L84.0578 65.194L85 64.0682L84.9126 57.507L84.8543 57.5264ZM67.934 63.777L65.0491 64.2526L61.9604 61.8261L60.2314 62.2629L59.7652 63.3111C59.736 63.379 59.7069 63.447 59.6778 63.5052L59.6486 63.5634C59.6098 63.6411 59.5709 63.709 59.5418 63.777L59.5029 63.8449C59.4544 63.9323 59.3961 64.0099 59.3378 64.107L59.1727 64.3302C59.1241 64.3981 59.0658 64.4661 59.0075 64.5243L58.9784 64.5631V64.6311H58.9104L58.7841 64.767C58.7162 64.8252 58.6579 64.8834 58.5996 64.9417L58.551 64.9902C58.4636 65.0679 58.3859 65.1261 58.2985 65.194L57.9197 65.4367C57.9197 65.4367 57.842 65.4755 57.8031 65.4949C57.7254 65.5434 57.6477 65.5823 57.5603 65.6211L57.5311 65.6405L57.4632 65.6793C57.4632 65.6793 57.3854 65.7084 57.3369 65.7279C57.2203 65.7764 57.0941 65.8249 56.9386 65.8831L56.8415 65.9123H56.8221C56.8221 65.9123 56.7832 65.9317 56.7638 65.9414C56.5307 66.0093 56.3364 66.0578 56.1616 66.087C55.9188 66.1258 55.6662 66.1452 55.4331 66.1452C54.7046 66.1452 54.083 65.9608 53.6264 65.6017L50.5377 63.1752L48.7116 64.0779L48.7504 66.9411L26.313 70.6487L21.2427 71.4834L15.1817 72.4831L4.7206 64.272L4.40978 40.5704L6.0416 40.2986L6.55639 38.2992L4.3515 36.5716L4.03097 12.8699L6.91578 12.3943L11.8695 16.2864L13.6956 15.3837L13.6373 11.2782L32.4032 8.18201L33.6076 9.13318L35.4337 8.24025L35.4045 4.60056L38.1145 4.17351L40.8536 6.31849L41.9512 6.48349L42.0095 6.46408L43.1751 7.20172L43.3208 7.17261L43.6122 6.71643L44.0298 7.09496H44.1561L44.2532 6.97849L44.3601 7.12408L44.5349 7.14349L45.5354 6.31849C45.6034 6.35732 45.6714 6.40584 45.7393 6.45437L45.9919 6.6582V6.70673L46.0307 6.75525H46.1085L46.1473 6.78437L46.1085 6.8329L46.1376 6.85231L46.2056 6.9979L46.4096 7.27937L46.4776 7.34731L46.4387 7.43466L46.497 7.58996L47.9151 8.1626L57.638 15.8011C57.638 15.8011 57.6866 15.8399 57.7157 15.869C57.7643 15.9176 57.8031 15.9467 57.842 15.9952L57.9877 16.1602C57.9877 16.1602 58.0557 16.2476 58.0848 16.2961L58.2208 16.529V16.5484L58.2402 16.5678C58.2402 16.5678 58.2596 16.597 58.2693 16.6164V16.6455L58.2888 16.6649L58.3859 16.8881C58.3859 16.8881 58.4053 16.927 58.4053 16.9464C58.4442 17.0628 58.483 17.1987 58.5219 17.3346L58.6482 17.9946C58.6482 17.9946 58.6482 18.0528 58.6579 18.0917L58.6967 19.5864L53.8401 20.8869L53.2088 22.6243L53.9373 23.6628C54.2384 24.0996 54.6463 24.6431 55.2291 25.439V25.4584L56.9289 27.6325C57.1135 27.8654 57.2883 28.1178 57.502 28.4381C57.6089 28.6031 57.7351 28.8069 57.8614 29.0301L58.0168 29.3116L58.0362 29.3504C58.0362 29.3504 58.0848 29.4378 58.1139 29.4863L58.2111 29.6998C58.2499 29.7872 58.2888 29.8648 58.3276 29.9522L58.687 30.7772L59.9012 31.4372L69.8183 29.7969L80.2794 38.008L80.3183 40.6868L76.5981 41.2983L75.6559 42.4242L75.6851 45.035L76.1124 45.9086L78.9973 48.17L79.0361 50.8488L76.7341 51.2273L75.7919 52.3532L75.8211 54.4982L76.2484 55.3717L80.8525 58.9823L80.8913 61.6611L73.0431 62.952L69.7406 60.3605L67.9145 61.2632L67.9437 63.7964L67.934 63.777Z" fill="#2F57E4"/>
<path d="M82.9119 63.35L82.8439 57.9729L77.8222 54.0227V53.0715L81.0761 52.5377L81.0081 47.1606L77.7056 44.5692L77.6862 43.1424L82.3679 42.3757L82.2999 36.9986L70.3819 27.6422L60.9504 29.2049L60.2802 29.3116C60.251 29.2437 60.2122 29.166 60.183 29.0981C60.1442 29.001 60.0956 28.9137 60.0471 28.8166C60.0082 28.739 59.9694 28.6516 59.9305 28.574C59.8722 28.4575 59.8042 28.3411 59.7362 28.2246C59.6974 28.1566 59.6683 28.0984 59.6294 28.0305C59.4934 27.7878 59.3477 27.5549 59.202 27.3219C59.202 27.3122 59.1826 27.2928 59.1729 27.2831C58.9786 26.9822 58.7649 26.6814 58.5415 26.3902L56.8514 24.2161C56.3172 23.4978 55.9093 22.9446 55.5984 22.5079L60.7561 21.1296L60.7367 20.1299C60.7367 19.9649 60.7367 19.8096 60.7367 19.664C60.7367 19.6252 60.7367 19.5864 60.7367 19.5573C60.7367 19.4117 60.7367 19.2758 60.7367 19.1593C60.7367 19.1399 60.7367 19.1205 60.7367 19.1011C60.7367 18.9943 60.7367 18.8876 60.7367 18.7905C60.7367 18.7711 60.7367 18.7517 60.7367 18.742C60.7367 18.6449 60.7367 18.5479 60.7367 18.4605C60.7367 18.4411 60.7367 18.4217 60.7367 18.4023C60.7367 18.3246 60.7367 18.2373 60.727 18.1693C60.727 18.1693 60.727 18.1693 60.727 18.1596C60.727 18.082 60.7173 18.0141 60.7076 17.9461C60.7076 17.9267 60.7076 17.917 60.7076 17.8976C60.7076 17.8296 60.6881 17.7617 60.6784 17.6938C60.6784 17.6938 60.6784 17.6744 60.6784 17.6646C60.6784 17.6064 60.659 17.5482 60.6493 17.4802C60.6493 17.4802 60.6493 17.4608 60.6493 17.4511C60.6493 17.4511 60.6493 17.4414 60.6493 17.4317C60.6396 17.3638 60.6201 17.2861 60.6104 17.2182C60.6104 17.1988 60.6104 17.1794 60.6007 17.1696C60.5813 17.092 60.5716 17.0144 60.5522 16.9173C60.4939 16.6747 60.4259 16.4417 60.3482 16.2185C60.3482 16.1894 60.3288 16.1699 60.319 16.1505C60.2996 16.0923 60.2705 16.0341 60.2413 15.9758C60.1928 15.8691 60.1539 15.7623 60.1053 15.6555C60.0665 15.5779 60.0276 15.5197 59.9791 15.442C59.9596 15.4032 59.9305 15.3644 59.9111 15.3255C59.8917 15.2964 59.8819 15.2673 59.8625 15.2382C59.7848 15.1217 59.7071 15.015 59.6197 14.9082C59.5905 14.8694 59.5517 14.8305 59.5226 14.7917C59.5031 14.7723 59.4837 14.7432 59.4643 14.7238C59.4351 14.6947 59.406 14.6558 59.3769 14.6267C59.2992 14.5394 59.2117 14.4617 59.1243 14.3841C59.066 14.3355 59.0078 14.287 58.9495 14.2385L47.0314 4.88207C47.0314 4.88207 47.0314 4.88207 47.0411 4.89178C46.0601 4.11531 44.7391 3.80473 43.185 4.05708C42.6896 4.13472 42.2137 4.27061 41.7572 4.44531L38.7266 2.05768L33.433 2.89238L33.4524 6.41559L32.9959 6.05648L21.2138 8.00735L11.6366 9.57969L11.6852 13.5591L7.49879 10.2688L2.03027 11.1714L2.37995 37.5713L3.74951 38.6486L2.39937 38.8719L2.74905 65.2717L14.6671 74.6281L20.1356 73.7255L21.2332 73.5411L26.4006 72.687L36.1138 71.0855L36.58 71.0079L36.8326 70.969L38.5518 70.6876L43.9621 69.7946L45.0694 69.6102L45.8173 69.484L50.8293 68.659L50.7904 65.922L52.4125 67.1935C53.4518 68.0088 54.8991 68.3388 56.5115 68.0767C56.8029 68.0282 57.0845 67.9602 57.3662 67.8729C57.4536 67.8438 57.5411 67.8146 57.6285 67.7855C57.8228 67.7176 58.0073 67.6496 58.1918 67.5623C58.2404 67.5429 58.289 67.5332 58.3278 67.5041C58.3861 67.4749 58.4347 67.4458 58.493 67.4167C58.6095 67.3585 58.7164 67.3002 58.8329 67.2323C58.8912 67.2032 58.9495 67.1741 58.998 67.1449C59.066 67.1061 59.134 67.0576 59.202 67.0091C59.2603 66.9702 59.3283 66.9314 59.3866 66.8829C59.4254 66.8538 59.4546 66.8344 59.4934 66.8149C59.6294 66.7179 59.7654 66.6111 59.8917 66.4947C59.8917 66.4947 59.8917 66.4946 59.9014 66.4849C59.9111 66.4752 59.9208 66.4655 59.9305 66.4558C60.0276 66.3685 60.1345 66.2811 60.2219 66.1841C60.2802 66.1258 60.3385 66.0676 60.387 66.0094C60.4162 65.9802 60.4356 65.9608 60.4647 65.9317C60.4842 65.9123 60.5036 65.8929 60.523 65.8735C60.6201 65.7667 60.7076 65.6599 60.795 65.5532C60.8241 65.5144 60.8533 65.4755 60.8824 65.4367C60.9018 65.4076 60.931 65.3785 60.9504 65.3397C60.9795 65.3008 61.0087 65.262 61.0378 65.2135C61.1155 65.097 61.1932 64.9708 61.2709 64.8544C61.2904 64.8252 61.3098 64.7864 61.3292 64.7573C61.3875 64.6505 61.4361 64.5535 61.4846 64.4467C61.4846 64.4467 61.4943 64.4273 61.504 64.4176C61.504 64.4079 61.504 64.3982 61.5138 64.3885C61.5526 64.3011 61.6012 64.2138 61.64 64.1264L64.5248 66.3879L69.9934 65.4852L69.9642 63.0782L72.4994 65.0679L82.9313 63.35H82.9119ZM42.7285 5.25089C42.7868 5.24119 42.8353 5.23148 42.8936 5.21207C42.8353 5.22178 42.7868 5.23148 42.7285 5.25089ZM43.9523 5.0956C43.9523 5.0956 43.9329 5.0956 43.9232 5.0956C43.9426 5.0956 43.9718 5.0956 43.9912 5.0956C43.9815 5.0956 43.962 5.0956 43.9523 5.0956ZM44.6711 5.14413C44.6905 5.14413 44.7197 5.14413 44.7391 5.14413C44.7197 5.14413 44.7002 5.14413 44.6808 5.14413H44.6711ZM47.4685 5.34795C47.4685 5.34795 47.4782 5.34795 47.4879 5.36736C47.5074 5.38678 47.5268 5.40619 47.5365 5.4256C47.5171 5.39648 47.4879 5.37707 47.4685 5.34795ZM47.9347 5.96913C47.9347 5.96913 47.9445 5.98854 47.9542 5.99824C47.9542 5.98854 47.9445 5.97883 47.9347 5.96913ZM48.333 6.78441C48.333 6.78441 48.333 6.78442 48.333 6.79412C48.333 6.79412 48.333 6.79412 48.333 6.80383V6.78441Z" fill="white"/>
<path d="M11.6363 31.4566L6.95455 32.2331L6.67287 11.2103L2.7876 11.8509L3.11785 36.6201L11.6849 35.2128L11.6363 31.4566Z" fill="#2F57E4"/>
<path d="M36.8517 9.16234L37.7453 3.00885L34.1709 3.57179L34.2098 9.57969L36.8517 9.16234Z" fill="#2F57E4"/>
<path d="M21.573 33.5822L21.5244 29.826L16.561 30.6413L16.4639 23.3037L19.7275 22.7699L19.6692 19.0137L16.4153 19.5573L16.3279 13.3747L21.0096 12.6079L20.9611 8.85175L12.394 10.2688L12.7243 35.0381L21.573 33.5822Z" fill="#2F57E4"/>
<path d="M25.0988 11.9285L25.3805 32.9513L29.2657 32.3107L28.9938 11.2879L32.2185 10.7541L32.1603 6.99792L21.9614 8.68674L22.01 12.4429L25.0988 11.9285Z" fill="#2F57E4"/>
<path d="M13.1322 45.006C13.103 42.6183 12.6659 41.0169 11.7529 39.9783C10.7136 38.8039 9.41202 38.5322 6.77004 38.9495L3.15674 39.5416L3.48699 64.3205L7.37226 63.68L7.23627 53.4015C7.46939 53.3433 7.6248 53.3044 7.87734 53.2171L9.91711 63.2529L14.0549 62.5735L11.5586 51.208C12.8699 49.1989 13.171 48.0051 13.1225 44.9963L13.1322 45.006ZM7.18771 49.4221L7.10029 42.6669L7.35283 42.628C8.10074 42.5116 8.53784 42.5504 8.79038 42.7639C9.14005 43.0551 9.29546 43.7636 9.31489 45.1904C9.34403 47.3839 9.27604 47.9371 9.07206 48.3836C8.80981 48.9465 8.28529 49.2571 7.31398 49.4124L7.19742 49.4318L7.18771 49.4221Z" fill="#2F57E4"/>
<path d="M42.3688 30.4569C42.7184 30.4569 43.0876 30.4278 43.4761 30.3598C46.7009 29.826 48.5269 27.5937 48.4784 24.2258C48.4492 22.0905 47.5265 19.6834 45.9529 17.6258L44.2531 15.442C41.99 12.4041 41.922 12.1905 41.9025 10.822C41.8928 10.0747 42.0191 8.80321 43.0098 8.63821C43.2624 8.59939 43.4761 8.63821 43.6412 8.76439C43.8646 8.92939 44.0103 9.24968 44.0589 9.68644C44.1366 10.1911 44.1754 10.6182 44.1949 11.8023V12.1808L48.0121 11.1617V10.9288C47.983 8.90027 47.9733 8.7838 47.7887 7.89086C47.2642 5.60999 45.5061 4.47441 43.0778 4.86265C39.9696 5.37705 37.9978 7.85204 38.0367 11.1811C38.0658 13.3455 38.7555 14.9567 40.8827 17.8296L42.563 20.0426C44.1657 21.9061 44.5542 22.7408 44.5737 24.2646C44.5931 25.6816 44.1754 26.4678 43.3498 26.6134C42.8253 26.7008 42.6213 26.5746 42.5048 26.4775C42.1454 26.1766 41.9802 25.3711 41.9608 23.8764L41.9414 22.469L38.1047 23.2746V23.5075C38.0658 24.1093 38.0658 24.3325 38.0756 24.8372C38.1047 27.021 38.3864 28.0402 39.2314 29.0593C40.0182 30.0007 41.0284 30.4569 42.3493 30.4569H42.3688Z" fill="#2F57E4"/>
<path d="M19.0571 57.9923L18.96 50.6547L22.2236 50.1209L22.175 46.3647L18.9114 46.8985L18.824 40.7159L23.5057 39.9492L23.4572 36.193L14.8901 37.6101L15.2204 62.3793L24.0691 60.9235L24.0205 57.1673L19.0571 57.9923Z" fill="#2F57E4"/>
<path d="M33.2191 34.5819L31.2765 45.7145L29.0327 35.271L24.6035 36.0086L24.9241 60.7779L28.2848 60.2247L28.11 46.4909L30.5188 59.8656L32.4323 59.5453L34.4624 45.5398L34.6469 59.1764L38.0757 58.6135L37.7454 33.8345L33.2191 34.5819Z" fill="#2F57E4"/>
<path d="M49.2847 38.4254C49.2458 35.5137 49.1293 34.8731 48.4202 33.8442C47.546 32.6698 45.953 32.136 44.1755 32.4175C42.4466 32.699 40.8731 33.7569 40.0474 35.1739C39.3869 36.3872 39.2898 37.0666 39.3287 39.9783L39.4938 51.868C39.5326 54.7894 39.6492 55.43 40.3485 56.4394C41.0673 57.4294 42.2718 57.9826 43.6802 57.9826C43.9813 57.9826 44.2824 57.9632 44.5932 57.905C46.3319 57.6235 47.9054 56.5462 48.7213 55.1097C49.3818 53.8868 49.4789 53.2171 49.4401 50.3053L49.2847 38.4157V38.4254ZM45.5742 52.2853C45.5937 53.6927 45.1371 54.0615 44.4572 54.178C44.127 54.2265 43.9036 54.1974 43.7482 54.0712C43.5248 53.8868 43.4082 53.45 43.3985 52.7318L43.2042 38.0566C43.1848 36.6395 43.6413 36.2804 44.3212 36.1639C44.4184 36.1445 44.5058 36.1445 44.5835 36.1445C44.7778 36.1445 44.9235 36.1834 45.0206 36.2707C45.244 36.4551 45.3605 36.8919 45.3703 37.6101L45.5645 52.295L45.5742 52.2853Z" fill="#2F57E4"/>
<path d="M60.1441 30.1463L49.9453 31.8254L50.0036 35.5815L53.0827 35.0671L53.3644 56.0899L57.2496 55.4494L56.9776 34.4265L60.2024 33.8927L60.1441 30.1463Z" fill="#2F57E4"/>
<path d="M70.1387 49.558L65.1753 50.383L65.0781 43.0454L68.3418 42.5018L68.2932 38.7554L65.0296 39.2892L64.9518 33.1066L69.6336 32.3398L69.585 28.5837L61.0083 30.0007L61.3385 54.77L70.197 53.3141L70.1387 49.558Z" fill="#2F57E4"/>
</svg>
