<svg width="393" height="831" viewBox="0 0 393 831" fill="none" xmlns="http://www.w3.org/2000/svg">
<g clip-path="url(#clip0_287_456)">
<path d="M58.0989 62.0427H20.8954V0.799194H35.9826V49.0643H58.1163V62.0427H58.0989Z" fill="#DEDEDE"/>
<path d="M107.808 62.0427H67.1163V0.799194H107.006V13.7776H82.0117V25.5051H103.971V38.2229H82.0117V49.0643H107.808V62.0427Z" fill="#DEDEDE"/>
<path d="M130.395 13.7776H114.506V0.799194H161.18V13.7776H145.291V62.0427H130.395V13.7776Z" fill="#DEDEDE"/>
<path d="M172.517 24.4452L166.709 20.8835C170.512 15.6713 172.413 8.94757 172.413 0.71228H183.471C183.471 6.04611 182.355 10.7371 180.122 14.7505C177.89 18.7813 175.343 22.0128 172.483 24.4452H172.517Z" fill="#DEDEDE"/>
<path d="M190.099 43.8346H205.186C205.308 45.6068 205.988 47.0488 207.244 48.1434C208.5 49.238 210.331 49.7939 212.773 49.7939C214.849 49.7939 216.645 49.3248 218.128 48.3693C219.611 47.4311 220.361 46.0585 220.361 44.2864C220.361 43.7478 220.308 43.3134 220.186 42.9486C220.064 42.6011 219.506 42.0277 218.494 41.2633C217.483 40.4988 216.052 39.8039 214.204 39.2132L206.983 36.8155C203.704 35.9295 200.948 34.748 198.68 33.2539C196.413 31.7771 194.773 30.1613 193.727 28.4065C192.68 26.6517 191.948 25.0186 191.547 23.4723C191.128 21.926 190.919 20.3623 190.919 18.7639C190.919 13.1869 192.942 8.6696 196.988 5.21217C201.035 1.73736 206.18 0.017334 212.424 0.017334C218.669 0.017334 223.762 1.71999 227.686 5.1253C231.61 8.53061 233.581 13.2042 233.581 19.1288H218.686C218.686 15.3412 216.541 13.4475 212.267 13.4475C210.244 13.4475 208.657 13.8992 207.488 14.7853C206.32 15.6713 205.744 16.8528 205.744 18.3469C205.744 20.5361 207.645 22.204 211.448 23.3333L218.494 25.5572C229.849 29.0493 235.535 35.2692 235.535 44.2169C235.535 48.4909 234.314 52.0873 231.872 55.0235C229.43 57.9597 226.57 60.0099 223.308 61.1566C220.029 62.3206 216.523 62.894 212.773 62.894C205.866 62.894 200.372 61.1566 196.256 57.6991C192.14 54.2417 190.099 49.6202 190.099 43.8694V43.8346Z" fill="#DEDEDE"/>
<path d="M35.2325 131.852H20.3372V70.608H45.7674C52.5523 70.608 57.7499 72.6234 61.3779 76.6542C65.0058 80.685 66.8197 85.4802 66.8197 91.0573C66.8197 95.6788 65.5639 99.8138 63.0348 103.462C60.5058 107.111 56.8604 109.526 52.0988 110.707L67.0988 131.869H49.779L36.5755 111.42H35.2325V131.869V131.852ZM45.0523 83.5864H35.2325V98.615H45.0523C47.3197 98.615 48.9941 97.8679 50.093 96.3911C51.1918 94.9143 51.7499 93.1248 51.7499 91.0573C51.7499 88.9898 51.1918 87.2176 50.093 85.7756C48.9941 84.3161 47.3197 83.6038 45.0523 83.6038V83.5864Z" stroke="#B6B6B6" stroke-width="0.4"/>
<path d="M118.326 131.851H77.6337V70.608H117.523V83.5864H92.529V95.3139H114.488V108.032H92.529V118.873H118.326V131.851Z" stroke="#B6B6B6" stroke-width="0.4"/>
<path d="M163.395 107.841L180.436 70.5907H193.012L200.512 131.834H185.163L181.413 98.8583L169.012 124.728H157.762L145.273 98.8583L141.436 131.834H126.087L133.674 70.5907H146.076L163.395 107.841Z" stroke="#B6B6B6" stroke-width="0.4"/>
<path d="M207.471 101.273C207.471 92.5689 210.523 85.1328 216.61 78.9997C222.715 72.8667 230.093 69.7915 238.779 69.7915C247.465 69.7915 254.948 72.8667 261.052 78.9997C267.157 85.1328 270.192 92.5515 270.192 101.273C270.192 109.995 267.139 117.327 261.052 123.46C254.948 129.593 247.535 132.668 238.779 132.668C230.023 132.668 222.767 129.593 216.645 123.46C210.523 117.327 207.453 109.926 207.453 101.273H207.471ZM227.285 89.5805C224.128 92.8121 222.558 96.7039 222.558 101.273C222.558 105.843 224.128 109.717 227.285 112.914C230.442 116.111 234.279 117.709 238.796 117.709C243.314 117.709 247.256 116.111 250.448 112.914C253.622 109.717 255.227 105.825 255.227 101.273C255.227 96.7213 253.622 92.8121 250.413 89.5805C247.203 86.349 243.331 84.7332 238.814 84.7332C234.296 84.7332 230.459 86.349 227.302 89.5805H227.285Z" stroke="#B6B6B6" stroke-width="0.4"/>
<path d="M291.907 83.5864H276.017V70.608H322.692V83.5864H306.802V131.851H291.907V83.5864Z" stroke="#B6B6B6" stroke-width="0.4"/>
<path d="M372.663 131.851H331.971V70.608H371.86V83.5864H346.866V95.3139H368.825V108.032H346.866V118.873H372.663V131.851Z" stroke="#B6B6B6" stroke-width="0.4"/>
<path d="M35.2325 201.643H20.3372V140.4H45.7674C52.5523 140.4 57.7499 142.415 61.3779 146.446C65.0058 150.476 66.8197 155.272 66.8197 160.849C66.8197 165.47 65.5639 169.605 63.0348 173.254C60.5058 176.902 56.8604 179.317 52.0988 180.499L67.0988 201.66H49.779L36.5755 181.211H35.2325V201.66V201.643ZM45.0523 153.378H35.2325V168.406H45.0523C47.3197 168.406 48.9941 167.659 50.093 166.183C51.1918 164.706 51.7499 162.916 51.7499 160.849C51.7499 158.781 51.1918 157.009 50.093 155.567C48.9941 154.108 47.3197 153.395 45.0523 153.395V153.378Z" stroke="#B6B6B6" stroke-width="0.4"/>
<path d="M118.326 201.643H77.6337V140.4H117.523V153.378H92.529V165.105H114.488V177.823H92.529V188.665H118.326V201.643Z" stroke="#B6B6B6" stroke-width="0.4"/>
<path d="M163.395 177.649L180.436 140.4H193.012L200.512 201.643H185.163L181.413 168.667L169.012 194.537H157.762L145.273 168.667L141.436 201.643H126.087L133.674 140.4H146.076L163.395 177.649Z" stroke="#B6B6B6" stroke-width="0.4"/>
<path d="M207.471 171.065C207.471 162.36 210.523 154.924 216.61 148.791C222.715 142.658 230.093 139.583 238.779 139.583C247.465 139.583 254.948 142.658 261.052 148.791C267.157 154.924 270.192 162.343 270.192 171.065C270.192 179.787 267.139 187.118 261.052 193.251C254.948 199.384 247.535 202.46 238.779 202.46C230.023 202.46 222.767 199.384 216.645 193.251C210.523 187.118 207.453 179.717 207.453 171.065H207.471ZM227.285 159.372C224.128 162.604 222.558 166.495 222.558 171.065C222.558 175.634 224.128 179.509 227.285 182.705C230.442 185.902 234.279 187.501 238.796 187.501C243.314 187.501 247.256 185.902 250.448 182.705C253.622 179.509 255.227 175.617 255.227 171.065C255.227 166.513 253.622 162.604 250.413 159.372C247.203 156.14 243.331 154.525 238.814 154.525C234.296 154.525 230.459 156.14 227.302 159.372H227.285Z" stroke="#B6B6B6" stroke-width="0.4"/>
<path d="M291.907 153.378H276.017V140.4H322.692V153.378H306.802V201.643H291.907V153.378Z" stroke="#B6B6B6" stroke-width="0.4"/>
<path d="M372.663 201.643H331.971V140.4H371.86V153.378H346.866V165.105H368.825V177.823H346.866V188.665H372.663V201.643Z" stroke="#B6B6B6" stroke-width="0.4"/>
<path d="M35.2674 271.452C30.2965 271.452 25.3256 271.452 20.3721 271.452C14.2849 251.037 27.1744 230.623 21.1047 210.208H46.5349C53.2849 210.208 59.25 212.224 63.436 216.255C67.6047 220.285 69.4186 225.081 68.7558 230.658C68.2151 235.279 66.1919 239.414 63.0698 243.063C59.9302 246.711 55.9709 249.126 51.0698 250.308C55.2035 257.362 60.0349 264.415 67.1337 271.469C61.3605 271.469 55.5872 271.469 49.814 271.469C43.3779 264.659 39.0698 257.831 35.4419 251.02H34.0988C33.314 257.831 33.2267 264.659 35.2674 271.469V271.452ZM47.4767 223.187H37.657C37.5872 228.191 36.8721 233.212 36.0523 238.215H45.8721C48.1395 238.215 49.936 237.468 51.2616 235.991C52.5872 234.515 53.407 232.725 53.6512 230.658C53.8954 228.59 53.4767 226.818 52.4477 225.376C51.4186 223.916 49.7267 223.204 47.4767 223.204V223.187Z" stroke="#B6B6B6" stroke-width="0.4"/>
<path d="M118.36 271.452C104.791 271.452 91.2384 271.452 77.6686 271.452C71.5814 251.037 84.4709 230.623 78.4012 210.208H118.291C119.581 214.535 120.017 218.861 119.965 223.187H94.9709C94.9186 227.096 94.4651 231.005 93.8895 234.914C101.215 234.914 108.523 234.914 115.849 234.914C115.221 239.154 114.419 243.393 113.808 247.632H91.8488C91.3256 251.246 90.9419 254.86 90.8895 258.473C99.4884 258.473 108.087 258.473 116.686 258.473C116.634 262.8 117.07 267.126 118.36 271.452Z" stroke="#B6B6B6" stroke-width="0.4"/>
<path d="M162.733 247.441C170.215 235.019 179.215 222.613 181.203 210.191H193.779C202.36 230.606 191.965 251.02 200.546 271.434C195.436 271.434 190.308 271.434 185.198 271.434C180.68 260.437 181.657 249.439 182.198 238.459C176.651 247.076 170.843 255.711 167.634 264.329H156.384C151.291 255.711 148.796 247.076 146.058 238.459C142.971 249.456 139.465 260.454 141.471 271.434C136.36 271.434 131.233 271.434 126.122 271.434C122.564 251.02 137.983 230.606 134.424 210.191H146.826C156.296 222.613 158.756 235.019 162.715 247.441H162.733Z" stroke="#B6B6B6" stroke-width="0.4"/>
<path d="M207.872 240.874C209.39 232.169 213.349 224.733 218.913 218.6C224.477 212.467 230.547 209.392 239.32 209.392C248.006 209.392 256.744 212.45 263.372 218.6C270 224.733 272.145 232.152 270.628 240.874C269.11 249.526 265.151 256.927 259.605 263.06C254.023 269.193 247.936 272.268 239.11 272.268C230.547 272.268 221.843 269.193 215.198 263.06C208.535 256.927 206.372 249.526 207.89 240.874H207.872ZM229.378 229.181C225.907 232.412 223.727 236.304 222.959 240.874C222.192 245.443 223.169 249.317 226.012 252.514C228.855 255.711 232.692 257.309 237.209 257.309C241.797 257.309 245.686 255.711 249.174 252.514C252.663 249.317 254.86 245.426 255.628 240.874C256.395 236.304 255.401 232.412 252.488 229.181C249.593 225.949 245.721 224.334 241.221 224.334C236.686 224.334 232.849 225.949 229.378 229.181Z" stroke="#B6B6B6" stroke-width="0.4"/>
<path d="M294.331 223.187H278.442C278.494 218.861 278.058 214.535 276.767 210.208H323.442C324.733 214.535 325.169 218.861 325.116 223.187H309.227C309.035 239.275 302.041 255.363 306.837 271.452C301.866 271.452 296.895 271.452 291.942 271.452C287.145 255.363 294.14 239.275 294.331 223.187Z" stroke="#B6B6B6" stroke-width="0.4"/>
<path d="M372.698 271.452C359.128 271.452 345.576 271.452 332.006 271.452C325.919 251.037 338.808 230.623 332.738 210.208H372.628C373.919 214.535 374.355 218.861 374.302 223.187H349.308C349.256 227.096 348.802 231.005 348.227 234.914C355.552 234.914 362.861 234.914 370.186 234.914C369.558 239.154 368.756 243.393 368.145 247.632H346.186C345.663 251.246 345.279 254.86 345.227 258.473C353.826 258.473 362.424 258.473 371.023 258.473C370.971 262.8 371.407 267.126 372.698 271.452Z" stroke="#B6B6B6" stroke-width="0.4"/>
<path d="M34.9186 341.243H20.0233C7.8663 320.829 33.6279 300.414 21.471 280H46.9012C53.6163 280 60.3314 282.015 65.093 286.046C69.8198 290.077 71.6163 294.872 70.2907 300.449C69.2093 305.071 66.4186 309.206 62.7209 312.854C58.9884 316.503 54.6977 318.918 49.657 320.099C52.9361 327.153 57.6105 334.207 66.8023 341.261H49.4826C41.0233 334.45 36.7849 327.622 33.9593 320.811C33.5058 320.811 33.0698 320.811 32.6163 320.811C31.0465 327.622 30.8721 334.45 34.9361 341.261L34.9186 341.243ZM49.5349 292.978H39.7151C39.593 297.982 38.1454 302.986 36.5233 308.007H46.343C48.6105 308.007 50.5291 307.26 52.0989 305.783C53.6512 304.306 54.7326 302.517 55.2209 300.449C55.7093 298.382 55.4128 296.609 54.4535 295.167C53.4942 293.708 51.8023 292.996 49.5523 292.996L49.5349 292.978Z" stroke="#B6B6B6" stroke-width="0.4"/>
<path d="M117.994 341.243H77.3023C65.1454 320.829 90.907 300.414 78.75 280H118.64C121.221 284.326 122.093 288.652 121.988 292.978H96.9942C96.8895 296.887 96 300.797 94.8314 304.706H116.791C115.517 308.945 113.948 313.184 112.727 317.424H90.7674C89.7209 321.037 88.9535 324.651 88.8663 328.265H114.663C114.558 332.591 115.43 336.917 118.012 341.243H117.994Z" stroke="#B6B6B6" stroke-width="0.4"/>
<path d="M161.686 317.25C170.965 304.827 183.279 292.422 181.57 280H194.145C208.814 300.414 185.529 320.829 200.198 341.243H184.849C177.052 330.246 180.244 319.248 182.599 308.267C175.64 316.885 168.157 325.52 165.872 334.137H154.622C148.605 325.52 147.785 316.885 146.459 308.267C141.576 319.265 135.855 330.263 141.122 341.243H125.773C116.145 320.829 144.436 300.414 134.808 280H147.209C160.378 292.422 159.506 304.827 161.686 317.25Z" stroke="#B6B6B6" stroke-width="0.4"/>
<path d="M207.855 310.665C210.907 301.961 215.773 294.525 220.796 288.392C225.837 282.259 230.599 279.183 239.424 279.183C248.023 279.183 258.105 282.259 265.256 288.392C272.424 294.525 273.645 301.943 270.61 310.665C267.593 319.317 262.727 326.719 257.686 332.852C252.645 338.985 247.866 342.06 238.971 342.06C230.477 342.06 220.465 338.985 213.279 332.852C206.076 326.719 204.837 319.317 207.855 310.665ZM231.035 298.972C227.25 302.204 224.477 306.096 222.924 310.665C221.39 315.234 221.756 319.109 224.302 322.306C226.831 325.503 230.669 327.101 235.169 327.101C239.773 327.101 243.663 325.503 247.465 322.306C251.267 319.109 254.058 315.217 255.593 310.665C257.128 306.096 256.744 302.204 254.145 298.972C251.564 295.741 247.692 294.125 243.192 294.125C238.657 294.125 234.802 295.741 231.017 298.972H231.035Z" stroke="#B6B6B6" stroke-width="0.4"/>
<path d="M296.372 292.978H280.483C280.587 288.652 279.715 284.326 277.134 280H323.808C326.39 284.326 327.262 288.652 327.157 292.978H311.268C310.866 309.067 296.895 325.155 306.471 341.243H291.576C281.983 325.155 295.971 309.067 296.372 292.978Z" stroke="#B6B6B6" stroke-width="0.4"/>
<path d="M372.349 341.243H331.657C319.5 320.829 345.262 300.414 333.105 280H372.994C375.576 284.326 376.448 288.652 376.343 292.978H351.349C351.244 296.887 350.355 300.797 349.186 304.706H371.145C369.872 308.945 368.302 313.184 367.081 317.424H345.122C344.076 321.037 343.308 324.651 343.221 328.265H369.017C368.913 332.591 369.785 336.917 372.366 341.243H372.349Z" stroke="#B6B6B6" stroke-width="0.4"/>
<path d="M33.8198 411.052H18.9244C-11.4767 390.638 52.9535 370.223 22.5523 349.809H47.9826C54.593 349.809 63.5756 351.824 70.0116 355.855C76.3779 359.886 78.1395 364.681 74.843 370.258C72.1395 374.879 67.0814 379.014 61.6047 382.663C56.0581 386.312 50.7907 388.727 45.3314 389.908C46.0116 396.962 50.1977 404.016 65.7035 411.07H48.3837C33.8372 404.259 29.843 397.431 29.3721 390.62H28.0291C24.1046 397.431 23.686 404.259 33.8372 411.07L33.8198 411.052ZM55.6221 362.787C52.343 362.787 49.0814 362.787 45.8023 362.787C45.4884 367.791 41.8953 372.795 37.7965 377.816H47.6163C49.8663 377.816 52.1686 377.069 54.436 375.592C56.686 374.115 58.5523 372.325 59.7558 370.258C60.9593 368.19 61.0814 366.418 60.3314 364.976C59.564 363.517 57.8721 362.805 55.6221 362.805V362.787Z" stroke="#B6B6B6" stroke-width="0.4"/>
<path d="M116.913 411.052H76.2209C45.8198 390.638 110.25 370.223 79.8488 349.809H119.738C126.174 354.135 128.372 358.461 128.093 362.787C119.756 362.787 111.436 362.787 103.099 362.787C102.855 366.696 100.605 370.605 97.6918 374.515H119.651C116.494 378.754 112.535 382.993 109.483 387.232H87.5232C84.9244 390.846 82.9884 394.46 82.7616 398.074C91.3605 398.074 99.9593 398.074 108.558 398.074C108.297 402.4 110.477 406.726 116.913 411.052Z" stroke="#B6B6B6" stroke-width="0.4"/>
<path d="M158.512 387.041C173.198 374.619 195.454 362.214 182.651 349.791H195.227C228.14 370.206 166.204 390.62 199.099 411.035H183.75C166.134 400.037 176.006 389.039 183.75 378.059C172.552 386.676 160.047 395.311 160.535 403.929H149.285C140.494 395.311 144.698 386.676 147.611 378.059C137.32 389.057 124.919 400.054 140.006 411.035H124.657C96.7849 390.62 163.744 370.206 135.872 349.791H148.273C172.535 362.214 161.721 374.619 158.494 387.041H158.512Z" stroke="#B6B6B6" stroke-width="0.4"/>
<path d="M207.837 380.474C215.442 371.77 223.081 364.333 226.483 358.2C229.954 352.067 230.738 348.992 239.773 348.992C248.163 348.992 262.204 352.067 270.924 358.2C279.715 364.333 278.18 371.752 270.576 380.474C263.023 389.126 255.419 396.528 252 402.661C248.529 408.794 247.709 411.869 238.622 411.869C230.337 411.869 216.349 408.794 207.593 402.661C198.785 396.528 200.267 389.126 207.82 380.474H207.837ZM236.093 368.781C231.384 372.013 226.779 375.905 222.924 380.474C219.07 385.043 217.657 388.918 219.262 392.115C220.866 395.311 224.686 396.91 229.151 396.91C233.791 396.91 237.68 395.311 242.407 392.115C247.134 388.918 251.721 385.026 255.576 380.474C259.43 375.905 260.843 372.013 259.186 368.781C257.547 365.55 253.692 363.934 249.227 363.934C244.657 363.934 240.802 365.55 236.076 368.781H236.093Z" stroke="#B6B6B6" stroke-width="0.4"/>
<path d="M302.477 362.77C297.174 362.77 291.89 362.77 286.587 362.77C286.849 358.444 284.669 354.118 278.233 349.791H324.907C331.343 354.118 333.541 358.444 333.262 362.77C327.959 362.77 322.674 362.77 317.372 362.77C316.378 378.858 281.424 394.946 305.39 411.035H290.494C266.529 394.946 301.465 378.858 302.477 362.77Z" stroke="#B6B6B6" stroke-width="0.4"/>
<path d="M371.25 411.052H330.558C300.157 390.638 364.587 370.223 334.186 349.809H374.076C380.512 354.135 382.709 358.461 382.43 362.787C374.093 362.787 365.773 362.787 357.436 362.787C357.192 366.696 354.942 370.605 352.029 374.515H373.988C370.831 378.754 366.872 382.993 363.82 387.232H341.86C339.262 390.846 337.326 394.46 337.099 398.074C345.698 398.074 354.296 398.074 362.895 398.074C362.634 402.4 364.814 406.726 371.25 411.052Z" stroke="#B6B6B6" stroke-width="0.4"/>
<path d="M33.8198 550.653H18.9244C-11.4767 530.238 52.9535 509.824 22.5523 489.409H47.9826C54.593 489.409 63.5756 491.424 70.0116 495.455C76.3779 499.486 78.1395 504.281 74.843 509.858C72.1221 514.48 67.0814 518.615 61.6047 522.263C56.0581 525.912 50.7907 528.327 45.3314 529.508C46.0116 536.562 50.1977 543.616 65.7035 550.67H48.3837C33.8372 543.859 29.843 537.031 29.3721 530.221C28.9186 530.221 28.4826 530.221 28.0291 530.221C24.1046 537.031 23.686 543.859 33.8372 550.67L33.8198 550.653ZM55.6221 502.387C52.343 502.387 49.0814 502.387 45.8023 502.387C45.4884 507.391 41.8953 512.395 37.7965 517.416H47.6163C49.8663 517.416 52.1686 516.669 54.436 515.192C56.6686 513.715 58.5523 511.926 59.7558 509.858C60.9593 507.791 61.0814 506.019 60.3314 504.577C59.564 503.117 57.8721 502.405 55.6221 502.405V502.387Z" stroke="#B6B6B6" stroke-width="0.4"/>
<path d="M116.913 550.653H76.2209C45.8198 530.238 110.25 509.824 79.8488 489.409H119.738C126.174 493.735 128.372 498.061 128.093 502.387C119.756 502.387 111.436 502.387 103.099 502.387C102.855 506.297 100.605 510.206 97.6918 514.115H119.651C116.494 518.354 112.535 522.593 109.483 526.833H87.5232C84.9244 530.447 82.9884 534.06 82.7616 537.674H108.558C108.297 542 110.477 546.326 116.913 550.653Z" stroke="#B6B6B6" stroke-width="0.4"/>
<path d="M158.512 526.642C173.198 514.219 195.454 501.814 182.651 489.392H195.227C228.14 509.806 166.204 530.221 199.099 550.635H183.75C166.134 539.637 176.006 528.64 183.75 517.659C172.552 526.277 160.047 534.912 160.535 543.529H149.285C140.494 534.912 144.698 526.277 147.611 517.659C137.32 528.657 124.919 539.655 140.006 550.635H124.657C96.7849 530.221 163.744 509.806 135.872 489.392H148.273C172.535 501.814 161.721 514.219 158.494 526.642H158.512Z" stroke="#B6B6B6" stroke-width="0.4"/>
<path d="M207.837 520.074C215.442 511.37 223.081 503.934 226.483 497.801C229.954 491.668 230.738 488.593 239.773 488.593C248.163 488.593 262.204 491.668 270.924 497.801C279.715 503.934 278.18 511.353 270.576 520.074C263.023 528.727 255.419 536.128 252 542.261C248.529 548.394 247.709 551.469 238.622 551.469C230.337 551.469 216.349 548.411 207.593 542.261C198.785 536.128 200.267 528.744 207.82 520.074H207.837ZM236.093 508.382C231.384 511.613 226.779 515.505 222.924 520.074C219.07 524.644 217.657 528.518 219.262 531.715C220.866 534.912 224.686 536.51 229.151 536.51C233.791 536.51 237.68 534.912 242.407 531.715C247.134 528.518 251.721 524.626 255.576 520.074C259.43 515.505 260.843 511.613 259.186 508.382C257.547 505.15 253.692 503.534 249.227 503.534C244.657 503.534 240.802 505.15 236.076 508.382H236.093Z" stroke="#B6B6B6" stroke-width="0.4"/>
<path d="M302.477 502.37C297.174 502.37 291.89 502.37 286.587 502.37C286.849 498.044 284.669 493.718 278.233 489.392H324.907C331.343 493.718 333.541 498.044 333.262 502.37C327.959 502.37 322.674 502.37 317.372 502.37C316.378 518.458 281.424 534.547 305.39 550.635H290.494C266.529 534.547 301.465 518.458 302.477 502.37Z" stroke="#B6B6B6" stroke-width="0.4"/>
<path d="M371.25 550.653H330.558C300.157 530.238 364.587 509.824 334.186 489.409H374.076C380.512 493.735 382.709 498.061 382.43 502.387C374.093 502.387 365.773 502.387 357.436 502.387C357.192 506.297 354.942 510.206 352.029 514.115H373.988C370.831 518.354 366.872 522.593 363.82 526.833H341.86C339.262 530.447 337.326 534.06 337.099 537.674H362.895C362.634 542 364.814 546.326 371.25 550.653Z" stroke="#B6B6B6" stroke-width="0.4"/>
<path d="M34.9186 620.444H20.0233C7.8663 600.03 33.6279 579.615 21.471 559.201H46.9012C53.6163 559.201 60.3314 561.216 65.093 565.247C69.8198 569.278 71.6163 574.073 70.2907 579.65C69.2093 584.271 66.4186 588.406 62.7209 592.055C58.9884 595.704 54.6977 598.119 49.657 599.3C52.9361 606.354 57.6105 613.408 66.8023 620.462H49.4826C41.0233 613.651 36.7849 606.823 33.9593 600.012H32.6163C31.0465 606.823 30.8721 613.651 34.9361 620.462L34.9186 620.444ZM49.5349 572.179H39.7151C39.593 577.183 38.1454 582.204 36.5233 587.208H46.343C48.593 587.208 50.5291 586.461 52.0989 584.984C53.6512 583.507 54.7326 581.717 55.2209 579.65C55.7093 577.582 55.4128 575.81 54.4535 574.368C53.4942 572.909 51.8023 572.196 49.5523 572.196L49.5349 572.179Z" stroke="#B6B6B6" stroke-width="0.4"/>
<path d="M117.994 620.444H77.3023C65.1454 600.03 90.907 579.615 78.75 559.201H118.64C121.221 563.527 122.093 567.853 121.988 572.179H96.9942C96.8895 576.088 96 579.997 94.8314 583.907C102.157 583.907 109.465 583.907 116.791 583.907C115.517 588.146 113.948 592.385 112.727 596.624H90.7674C89.7209 600.238 88.9535 603.852 88.8663 607.466H114.663C114.558 611.792 115.43 616.118 118.012 620.444H117.994Z" stroke="#B6B6B6" stroke-width="0.4"/>
<path d="M161.686 596.451C170.965 584.028 183.279 571.623 181.57 559.201H194.145C208.814 579.615 185.529 600.03 200.198 620.444H184.849C177.052 609.446 180.244 598.449 182.599 587.468C175.64 596.086 168.157 604.721 165.872 613.338H154.622C148.605 604.721 147.785 596.086 146.459 587.468C141.576 598.466 135.855 609.464 141.122 620.444H125.773C116.145 600.03 144.436 579.615 134.808 559.201H147.209C160.378 571.623 159.506 584.028 161.686 596.451Z" stroke="#B6B6B6" stroke-width="0.4"/>
<path d="M207.855 589.866C210.907 581.162 215.773 573.726 220.796 567.592C225.837 561.459 230.599 558.384 239.424 558.384C248.023 558.384 258.105 561.459 265.256 567.592C272.424 573.726 273.645 581.144 270.61 589.866C267.593 598.518 262.727 605.92 257.686 612.053C252.645 618.186 247.866 621.261 238.971 621.261C230.477 621.261 220.465 618.186 213.279 612.053C206.076 605.92 204.837 598.536 207.855 589.866ZM231.035 578.173C227.25 581.405 224.477 585.297 222.924 589.866C221.39 594.435 221.756 598.31 224.302 601.507C226.831 604.703 230.669 606.302 235.169 606.302C239.773 606.302 243.663 604.703 247.465 601.507C251.267 598.31 254.058 594.418 255.593 589.866C257.128 585.297 256.744 581.405 254.145 578.173C251.564 574.942 247.692 573.326 243.192 573.326C238.657 573.326 234.802 574.942 231.017 578.173H231.035Z" stroke="#B6B6B6" stroke-width="0.4"/>
<path d="M296.372 572.179H280.483C280.587 567.853 279.715 563.527 277.134 559.201H323.808C326.39 563.527 327.262 567.853 327.157 572.179H311.268C310.866 588.267 296.895 604.356 306.471 620.444H291.576C281.983 604.356 295.971 588.267 296.372 572.179Z" stroke="#B6B6B6" stroke-width="0.4"/>
<path d="M372.349 620.444H331.657C319.5 600.03 345.262 579.615 333.105 559.201H372.994C375.576 563.527 376.448 567.853 376.343 572.179H351.349C351.244 576.088 350.355 579.997 349.186 583.907C356.512 583.907 363.82 583.907 371.145 583.907C369.872 588.146 368.302 592.385 367.081 596.624H345.122C344.076 600.238 343.308 603.852 343.221 607.466H369.017C368.913 611.792 369.785 616.118 372.366 620.444H372.349Z" stroke="#B6B6B6" stroke-width="0.4"/>
<path d="M35.2674 690.253H20.3721C14.2849 669.839 27.1744 649.424 21.1047 629.01H46.5349C53.2849 629.01 59.25 631.025 63.436 635.056C67.6047 639.086 69.4186 643.882 68.7558 649.459C68.2151 654.08 66.1919 658.215 63.0698 661.864C59.9302 665.512 55.9709 667.927 51.0698 669.109C55.2035 676.163 60.0349 683.216 67.1337 690.27H49.814C43.3779 683.46 39.0698 676.632 35.4419 669.821C34.9884 669.821 34.5523 669.821 34.0988 669.821C33.314 676.632 33.2267 683.46 35.2674 690.27V690.253ZM47.4767 641.988H37.657C37.5872 646.992 36.8721 651.995 36.0523 657.016H45.8721C48.1395 657.016 49.936 656.269 51.2616 654.793C52.5872 653.316 53.407 651.526 53.6512 649.459C53.8954 647.391 53.4767 645.619 52.4477 644.177C51.4186 642.718 49.7267 642.005 47.4767 642.005V641.988Z" stroke="#B6B6B6" stroke-width="0.4"/>
<path d="M118.36 690.253H77.6686C71.5814 669.838 84.4709 649.424 78.4012 629.01H118.291C119.581 633.336 120.017 637.662 119.965 641.988H94.9709C94.9186 645.897 94.4651 649.806 93.8895 653.715H115.849C115.221 657.955 114.419 662.194 113.808 666.433H91.8488C91.3256 670.047 90.9419 673.661 90.8895 677.275H116.686C116.634 681.601 117.07 685.927 118.36 690.253Z" stroke="#B6B6B6" stroke-width="0.4"/>
<path d="M162.733 666.242C170.215 653.819 179.215 641.414 181.203 628.992H193.779C202.36 649.406 191.965 669.821 200.546 690.235H185.198C180.68 679.238 181.657 668.24 182.198 657.259C176.651 665.877 170.843 674.512 167.634 683.129H156.384C151.291 674.512 148.796 665.877 146.058 657.259C142.971 668.257 139.465 679.255 141.471 690.235H126.122C122.564 669.821 137.983 649.406 134.424 628.992H146.826C156.296 641.414 158.756 653.819 162.715 666.242H162.733Z" stroke="#B6B6B6" stroke-width="0.4"/>
<path d="M207.872 659.675C209.39 650.97 213.349 643.534 218.913 637.401C224.477 631.268 230.547 628.193 239.32 628.193C247.988 628.193 256.744 631.251 263.372 637.401C270 643.534 272.145 650.953 270.628 659.675C269.11 668.327 265.151 675.728 259.605 681.861C254.023 687.994 247.936 691.069 239.11 691.069C230.547 691.069 221.843 687.994 215.198 681.861C208.535 675.728 206.372 668.327 207.89 659.675H207.872ZM229.378 647.982C225.907 651.213 223.727 655.105 222.959 659.675C222.192 664.244 223.169 668.118 226.012 671.315C228.855 674.512 232.692 676.11 237.209 676.11C241.797 676.11 245.686 674.512 249.174 671.315C252.663 668.118 254.86 664.227 255.628 659.675C256.395 655.105 255.401 651.213 252.488 647.982C249.593 644.75 245.721 643.135 241.221 643.135C236.686 643.135 232.849 644.75 229.378 647.982Z" stroke="#B6B6B6" stroke-width="0.4"/>
<path d="M294.331 641.97H278.442C278.494 637.644 278.058 633.318 276.767 628.992H323.442C324.733 633.318 325.169 637.644 325.116 641.97H309.227C309.035 658.059 302.041 674.147 306.837 690.235H291.942C287.145 674.147 294.14 658.059 294.331 641.97Z" stroke="#B6B6B6" stroke-width="0.4"/>
<path d="M372.698 690.253H332.006C325.919 669.838 338.808 649.424 332.738 629.01H372.628C373.919 633.336 374.355 637.662 374.302 641.988H349.308C349.256 645.897 348.802 649.806 348.227 653.715H370.186C369.558 657.955 368.756 662.194 368.145 666.433H346.186C345.663 670.047 345.279 673.661 345.227 677.275H371.023C370.971 681.601 371.407 685.927 372.698 690.253Z" stroke="#B6B6B6" stroke-width="0.4"/>
<path d="M35.2325 760.044H20.3372V698.801H45.7674C52.5523 698.801 57.7499 700.816 61.3779 704.847C65.0058 708.878 66.8197 713.673 66.8197 719.25C66.8197 723.872 65.5639 728.007 63.0348 731.655C60.5058 735.304 56.8604 737.719 52.0988 738.9L67.0988 760.062H49.779L36.5755 739.613H35.2325V760.062V760.044ZM45.0523 711.779H35.2325V726.808H45.0523C47.3197 726.808 48.9941 726.061 50.093 724.584C51.1918 723.107 51.7499 721.318 51.7499 719.25C51.7499 717.183 51.1918 715.411 50.093 713.969C48.9941 712.509 47.3197 711.797 45.0523 711.797V711.779Z" stroke="#B6B6B6" stroke-width="0.4"/>
<path d="M118.326 760.044H77.6337V698.801H117.523V711.779H92.529V723.507H114.488V736.225H92.529V747.066H118.326V760.044Z" stroke="#B6B6B6" stroke-width="0.4"/>
<path d="M163.395 736.051L180.436 698.801H193.012L200.512 760.044H185.163L181.413 727.069L169.012 752.939H157.762L145.273 727.069L141.436 760.044H126.087L133.674 698.801H146.076L163.395 736.051Z" stroke="#B6B6B6" stroke-width="0.4"/>
<path d="M207.471 729.466C207.471 720.762 210.523 713.326 216.61 707.193C222.715 701.06 230.093 697.984 238.779 697.984C247.465 697.984 254.948 701.06 261.052 707.193C267.157 713.326 270.192 720.744 270.192 729.466C270.192 738.188 267.139 745.52 261.052 751.653C254.948 757.786 247.535 760.861 238.779 760.861C230.023 760.861 222.767 757.786 216.645 751.653C210.523 745.52 207.453 738.118 207.453 729.466H207.471ZM227.285 717.773C224.128 721.005 222.558 724.897 222.558 729.466C222.558 734.035 224.128 737.91 227.285 741.107C230.442 744.304 234.279 745.902 238.796 745.902C243.314 745.902 247.256 744.304 250.448 741.107C253.622 737.91 255.227 734.018 255.227 729.466C255.227 724.914 253.622 721.005 250.413 717.773C247.203 714.542 243.331 712.926 238.814 712.926C234.296 712.926 230.459 714.542 227.302 717.773H227.285Z" stroke="#B6B6B6" stroke-width="0.4"/>
<path d="M291.907 711.779H276.017V698.801H322.692V711.779H306.802V760.044H291.907V711.779Z" stroke="#B6B6B6" stroke-width="0.4"/>
<path d="M372.663 760.044H331.971V698.801H371.86V711.779H346.866V723.507H368.825V736.225H346.866V747.066H372.663V760.044Z" stroke="#B6B6B6" stroke-width="0.4"/>
<path d="M35.2325 829.853H20.3372V768.61H45.7674C52.5523 768.61 57.7499 770.625 61.3779 774.656C65.0058 778.687 66.8197 783.482 66.8197 789.059C66.8197 793.681 65.5639 797.816 63.0348 801.464C60.5058 805.113 56.8604 807.528 52.0988 808.709L67.0988 829.871H49.779L36.5755 809.421H35.2325V829.871V829.853ZM45.0523 781.588H35.2325V796.617H45.0523C47.3197 796.617 48.9941 795.87 50.093 794.393C51.1918 792.916 51.7499 791.127 51.7499 789.059C51.7499 786.992 51.1918 785.219 50.093 783.777C48.9941 782.318 47.3197 781.606 45.0523 781.606V781.588Z" stroke="#B6B6B6" stroke-width="0.4"/>
<path d="M118.326 829.853H77.6337V768.61H117.523V781.588H92.529V793.316H114.488V806.033H92.529V816.875H118.326V829.853Z" stroke="#B6B6B6" stroke-width="0.4"/>
<path d="M163.395 805.842L180.436 768.593H193.012L200.512 829.836H185.163L181.413 796.86L169.012 822.73H157.762L145.273 796.86L141.436 829.836H126.087L133.674 768.593H146.076L163.395 805.842Z" stroke="#B6B6B6" stroke-width="0.4"/>
<path d="M207.471 799.275C207.471 790.571 210.523 783.134 216.61 777.001C222.715 770.868 230.093 767.793 238.779 767.793C247.465 767.793 254.948 770.868 261.052 777.001C267.157 783.134 270.192 790.553 270.192 799.275C270.192 807.997 267.139 815.329 261.052 821.462C254.948 827.595 247.535 830.67 238.779 830.67C230.023 830.67 222.767 827.595 216.645 821.462C210.523 815.329 207.453 807.927 207.453 799.275H207.471ZM227.285 787.582C224.128 790.814 222.558 794.706 222.558 799.275C222.558 803.844 224.128 807.719 227.285 810.916C230.442 814.112 234.279 815.711 238.796 815.711C243.314 815.711 247.256 814.112 250.448 810.916C253.622 807.719 255.227 803.827 255.227 799.275C255.227 794.723 253.622 790.814 250.413 787.582C247.203 784.351 243.331 782.735 238.814 782.735C234.296 782.735 230.459 784.351 227.302 787.582H227.285Z" stroke="#B6B6B6" stroke-width="0.4"/>
<path d="M291.907 781.571H276.017V768.593H322.692V781.571H306.802V829.836H291.907V781.571Z" stroke="#B6B6B6" stroke-width="0.4"/>
<path d="M372.663 829.853H331.971V768.61H371.86V781.588H346.866V793.316H368.825V806.033H346.866V816.875H372.663V829.853Z" stroke="#B6B6B6" stroke-width="0.4"/>
<path d="M32.0232 480.844H17.1279C-43.6919 460.429 85.186 440.015 24.3663 419.6H49.7965C56.25 419.6 69 421.616 78.2442 425.647C87.3488 429.677 89.0407 434.473 82.4651 440.05C77.0407 444.671 68.1977 448.806 59.7558 452.455C51.1918 456.103 44.3198 458.518 38.1279 459.7C34.5 466.753 37.8663 473.807 63.8721 480.861H46.5523C21.8546 474.051 18.2791 467.223 21.7325 460.412C21.2791 460.412 20.843 460.412 20.3895 460.412C12.5232 467.223 11.686 474.051 31.9884 480.861L32.0232 480.844ZM65.8081 432.579H55.9884C55.3605 437.582 48.1744 442.586 39.9942 447.607H49.8139C52.0639 447.607 54.9942 446.86 58.3953 445.383C61.7791 443.907 64.9709 442.117 67.3779 440.05C69.7849 437.982 70.5872 436.21 70.1686 434.768C69.75 433.308 68.0233 432.596 65.7907 432.596L65.8081 432.579Z" stroke="#B6B6B6" stroke-width="0.4"/>
<path d="M115.099 480.844H74.4069C13.5872 460.429 142.465 440.015 81.6453 419.6H121.535C134.424 423.926 138.785 428.253 138.262 432.579H113.267C112.779 436.488 108.279 440.397 102.436 444.306H124.395C118.064 448.545 110.163 452.785 104.076 457.024C96.75 457.024 89.4418 457.024 82.1162 457.024C76.9186 460.638 73.0465 464.252 72.593 467.865C81.1918 467.865 89.7907 467.865 98.3895 467.865C97.8488 472.192 102.227 476.518 115.116 480.844H115.099Z" stroke="#B6B6B6" stroke-width="0.4"/>
<path d="M153.227 456.85C176.913 444.428 215.756 432.023 184.448 419.6H197.023C260.337 440.015 133.971 460.429 197.285 480.844H181.936C147.942 469.846 168.942 458.848 185.703 447.868C167.442 456.485 146.564 465.12 151.674 473.738C147.924 473.738 144.174 473.738 140.424 473.738C127.012 465.12 139.587 456.485 149.564 447.868C130.256 458.866 106.727 469.863 138.209 480.844H122.86C64.5697 460.429 195.977 440.015 137.686 419.6H150.087C192.837 432.023 165.453 444.428 153.227 456.85Z" stroke="#B6B6B6" stroke-width="0.4"/>
<path d="M207.802 450.265C223.029 441.561 235.221 434.125 235.936 427.992C236.791 421.859 230.948 418.784 240.331 418.784C248.372 418.784 269.023 421.859 280.378 427.992C291.855 434.125 285.75 441.544 270.541 450.265C255.436 458.918 243.279 466.319 242.546 472.452C241.692 478.585 247.5 481.66 238.064 481.66C230.128 481.66 209.529 478.585 198.157 472.452C186.663 466.319 192.698 458.918 207.802 450.265ZM244.483 438.573C238.203 441.804 230.581 445.696 222.872 450.265C215.163 454.835 210.75 458.709 210.837 461.906C210.89 465.103 214.692 466.701 219.122 466.701C223.796 466.701 227.721 465.103 234 461.906C240.262 458.709 247.831 454.817 255.541 450.265C263.25 445.696 267.68 441.804 267.593 438.573C267.523 435.341 263.686 433.725 259.273 433.725C254.651 433.725 250.779 435.341 244.483 438.573Z" stroke="#B6B6B6" stroke-width="0.4"/>
<path d="M312.645 432.579H296.756C297.296 428.253 292.919 423.926 280.029 419.6H326.703C339.593 423.926 343.953 428.253 343.43 432.579H327.541C325.535 448.667 255.645 464.755 303.576 480.844H288.68C240.75 464.755 310.64 448.667 312.645 432.579Z" stroke="#B6B6B6" stroke-width="0.4"/>
<path d="M369.454 480.844H328.762C267.942 460.429 396.82 440.015 336 419.6H375.89C388.779 423.926 393.14 428.253 392.616 432.579H367.622C367.134 436.488 362.634 440.397 356.791 444.306H378.75C372.419 448.545 364.517 452.785 358.43 457.024C351.105 457.024 343.797 457.024 336.471 457.024C331.273 460.638 327.401 464.252 326.948 467.865C335.547 467.865 344.145 467.865 352.744 467.865C352.204 472.192 356.581 476.518 369.471 480.844H369.454Z" stroke="#B6B6B6" stroke-width="0.4"/>
</g>
<defs>
<clipPath id="clip0_287_456">
<rect width="393" height="831" fill="white"/>
</clipPath>
</defs>
</svg>
