<svg width="1726" height="70" viewBox="0 0 1726 70" fill="none" xmlns="http://www.w3.org/2000/svg">
<path d="M483.8 38.65V37.65H482.8V38.65H483.8ZM495.63 38.65L496.628 38.5835L496.566 37.65H495.63V38.65ZM497.24 42.08L496.569 42.8215L496.579 42.8305L496.589 42.8393L497.24 42.08ZM505.78 42.22L505.241 41.3777H505.241L505.78 42.22ZM507.39 37.95L506.441 38.2662L506.441 38.2662L507.39 37.95ZM506.06 36.62L505.453 37.4144L506.06 36.62ZM502.7 35.01L502.384 35.9587L502.393 35.9617L502.7 35.01ZM497.03 33.12L497.346 32.1713L497.32 32.1625L497.293 32.1552L497.03 33.12ZM490.52 30.32L489.97 31.1554H489.97L490.52 30.32ZM486.6 26.54L485.73 27.033L485.74 27.0504L485.75 27.0674L486.6 26.54ZM489.19 8.27L489.839 9.03086L489.845 9.02532L489.19 8.27ZM513.27 8.2L512.61 8.95119L512.616 8.95682L513.27 8.2ZM517.89 19.19V20.19H518.89V19.19H517.89ZM506.2 19.19H505.2V20.19H506.2V19.19ZM497.38 15.76L496.78 14.96L496.77 14.9674L496.76 14.9751L497.38 15.76ZM500.53 22.48L500.832 21.5266L500.823 21.5239L500.815 21.5214L500.53 22.48ZM506.06 24.23L505.758 25.1834L505.765 25.1855L506.06 24.23ZM516.56 47.47L517.327 48.1118L517.333 48.1041L516.56 47.47ZM509.84 52.3L510.167 53.2452L510.174 53.2426L510.182 53.2398L509.84 52.3ZM488.63 49.57L487.98 50.3301L487.987 50.3355L488.63 49.57ZM483.8 39.65H495.63V37.65H483.8V39.65ZM494.632 38.7165C494.742 40.3578 495.384 41.7493 496.569 42.8215L497.911 41.3385C497.136 40.6374 496.705 39.7422 496.628 38.5835L494.632 38.7165ZM496.589 42.8393C497.82 43.8945 499.54 44.34 501.58 44.34V42.34C499.794 42.34 498.62 41.9455 497.891 41.3207L496.589 42.8393ZM501.58 44.34C503.37 44.34 504.964 43.9292 506.319 43.0623L505.241 41.3777C504.262 42.0041 503.057 42.34 501.58 42.34V44.34ZM506.319 43.0623C507.777 42.1294 508.53 40.7365 508.53 39H506.53C506.53 40.0635 506.117 40.8173 505.241 41.3777L506.319 43.0623ZM508.53 39C508.53 38.5141 508.477 38.0489 508.339 37.6338L506.441 38.2662C506.49 38.4111 506.53 38.6459 506.53 39H508.53ZM508.339 37.6338C508.213 37.2562 507.929 36.9351 507.695 36.7004C507.429 36.4348 507.081 36.1421 506.667 35.8256L505.453 37.4144C505.832 37.7046 506.103 37.9369 506.28 38.1146C506.369 38.2031 506.422 38.2661 506.451 38.3052C506.485 38.3505 506.464 38.3347 506.441 38.2662L508.339 37.6338ZM506.667 35.8256C505.749 35.1236 504.511 34.5436 503.007 34.0583L502.393 35.9617C503.782 36.4097 504.784 36.9031 505.453 37.4144L506.667 35.8256ZM503.016 34.0613L497.346 32.1713L496.714 34.0687L502.384 35.9587L503.016 34.0613ZM497.293 32.1552C494.804 31.4763 492.736 30.5808 491.07 29.4846L489.97 31.1554C491.851 32.3926 494.123 33.3637 496.767 34.0848L497.293 32.1552ZM491.07 29.4846C489.379 28.3724 488.192 27.2089 487.45 26.0126L485.75 27.0674C486.688 28.5777 488.114 29.9343 489.97 31.1554L491.07 29.4846ZM487.47 26.047C486.707 24.7009 486.185 23.4729 485.886 22.36L483.954 22.88C484.308 24.1937 484.906 25.5791 485.73 27.033L487.47 26.047ZM485.886 22.36C485.582 21.2317 485.43 20.0825 485.43 18.91H483.43C483.43 20.2575 483.605 21.5816 483.954 22.88L485.886 22.36ZM485.43 18.91C485.43 14.7988 486.901 11.5366 489.839 9.03083L488.541 7.50916C485.132 10.4168 483.43 14.2479 483.43 18.91H485.43ZM489.845 9.02532C492.807 6.45548 496.598 5.14 501.3 5.14V3.14C496.202 3.14 491.919 4.57785 488.535 7.51467L489.845 9.02532ZM501.3 5.14C506.007 5.14 509.747 6.43497 512.61 8.95116L513.93 7.44883C510.633 4.5517 506.393 3.14 501.3 3.14V5.14ZM512.616 8.95682C515.443 11.3979 516.89 14.7665 516.89 19.19H518.89C518.89 14.2801 517.257 10.3221 513.924 7.44317L512.616 8.95682ZM517.89 18.19H506.2V20.19H517.89V18.19ZM507.2 19.19C507.2 17.51 506.722 16.0761 505.604 15.0826C504.509 14.109 502.967 13.71 501.16 13.71V15.71C502.713 15.71 503.691 16.0577 504.276 16.5774C504.838 17.0772 505.2 17.8833 505.2 19.19H507.2ZM501.16 13.71C499.434 13.71 497.939 14.0906 496.78 14.96L497.98 16.56C498.687 16.0294 499.713 15.71 501.16 15.71V13.71ZM496.76 14.9751C495.624 15.8719 495.05 17.0989 495.05 18.56H497.05C497.05 17.6877 497.362 17.0481 498 16.5449L496.76 14.9751ZM495.05 18.56C495.05 19.7562 495.584 20.7758 496.511 21.5876C497.411 22.3744 498.684 22.9752 500.245 23.4386L500.815 21.5214C499.389 21.0981 498.423 20.6023 497.829 20.0824C497.263 19.5876 497.05 19.0905 497.05 18.56H495.05ZM500.228 23.4334L505.758 25.1834L506.362 23.2766L500.832 21.5266L500.228 23.4334ZM505.765 25.1855C510.117 26.5298 513.279 28.3684 515.348 30.6428C517.397 32.8963 518.43 35.6381 518.43 38.93H520.43C520.43 35.1752 519.234 31.9437 516.827 29.2971C514.439 26.6716 510.916 24.6835 506.355 23.2745L505.765 25.1855ZM518.43 38.93C518.43 42.0867 517.537 44.7018 515.787 46.8359L517.333 48.1041C519.41 45.5715 520.43 42.4933 520.43 38.93H518.43ZM515.793 46.8283C513.982 48.9926 511.884 50.4925 509.498 51.3602L510.182 53.2398C512.929 52.2408 515.311 50.5207 517.327 48.1117L515.793 46.8283ZM509.513 51.3548C507.06 52.2023 504.418 52.63 501.58 52.63V54.63C504.622 54.63 507.486 54.171 510.167 53.2452L509.513 51.3548ZM501.58 52.63C496.333 52.63 492.267 51.3206 489.273 48.8045L487.987 50.3355C491.433 53.2327 496 54.63 501.58 54.63V52.63ZM489.28 48.81C486.299 46.2609 484.8 42.9071 484.8 38.65H482.8C482.8 43.4463 484.521 47.3724 487.98 50.33L489.28 48.81ZM527.406 53H526.406V54H527.406V53ZM527.406 4.77V3.77H526.406V4.77H527.406ZM539.096 4.77H540.096V3.77H539.096V4.77ZM539.096 53V54H540.096V53H539.096ZM528.406 53V4.77H526.406V53H528.406ZM527.406 5.77H539.096V3.77H527.406V5.77ZM538.096 4.77V53H540.096V4.77H538.096ZM539.096 52H527.406V54H539.096V52ZM574.886 4.77V3.77H573.886V4.77H574.886ZM586.576 4.77H587.576V3.77H586.576V4.77ZM586.576 53V54H587.576V53H586.576ZM576.356 53L575.484 53.4894L575.77 54H576.356V53ZM561.586 26.68L562.458 26.1906L560.586 22.8546V26.68H561.586ZM561.586 53V54H562.586V53H561.586ZM549.896 53H548.896V54H549.896V53ZM549.896 4.77V3.77H548.896V4.77H549.896ZM560.466 4.77L561.34 4.28456L561.054 3.77H560.466V4.77ZM574.886 30.74L574.012 31.2254L575.886 34.6009V30.74H574.886ZM574.886 5.77H586.576V3.77H574.886V5.77ZM585.576 4.77V53H587.576V4.77H585.576ZM586.576 52H576.356V54H586.576V52ZM577.228 52.5106L562.458 26.1906L560.714 27.1694L575.484 53.4894L577.228 52.5106ZM560.586 26.68V53H562.586V26.68H560.586ZM561.586 52H549.896V54H561.586V52ZM550.896 53V4.77H548.896V53H550.896ZM549.896 5.77H560.466V3.77H549.896V5.77ZM559.592 5.25544L574.012 31.2254L575.76 30.2546L561.34 4.28456L559.592 5.25544ZM575.886 30.74V4.77H573.886V30.74H575.886ZM630.097 35.85L630.671 35.031L629.808 34.4262L629.249 35.32L630.097 35.85ZM639.687 42.57L640.523 43.1194L641.056 42.3082L640.261 41.751L639.687 42.57ZM630.867 50.69L631.346 51.5679L631.35 51.5657L630.867 50.69ZM601.817 46.42L601.107 47.1237L601.11 47.1271L601.817 46.42ZM601.747 11.42L601.037 10.7163L601.037 10.7163L601.747 11.42ZM630.937 7.15L630.45 8.02308L630.456 8.02683L630.463 8.03047L630.937 7.15ZM639.757 15.2L640.33 16.0201L641.127 15.4634L640.593 14.6506L639.757 15.2ZM630.027 21.99L629.17 22.5045L629.721 23.4232L630.6 22.8101L630.027 21.99ZM625.407 17.58L624.902 18.443L624.914 18.4502L624.927 18.4571L625.407 17.58ZM610.147 19.75L610.861 20.4505L610.867 20.4439L610.147 19.75ZM610.147 38.09L609.434 38.7905L610.147 38.09ZM625.477 40.26L624.988 39.3879L625.477 40.26ZM629.523 36.6689L639.113 43.389L640.261 41.751L630.671 35.031L629.523 36.6689ZM638.852 42.0206C636.703 45.2887 633.885 47.8845 630.384 49.8143L631.35 51.5657C635.13 49.4822 638.192 46.6646 640.523 43.1194L638.852 42.0206ZM630.388 49.8121C626.946 51.6898 623.214 52.63 619.177 52.63V54.63C623.54 54.63 627.602 53.6102 631.346 51.5679L630.388 49.8121ZM619.177 52.63C612.677 52.63 607.144 50.333 602.524 45.7129L601.11 47.1271C606.103 52.1203 612.144 54.63 619.177 54.63V52.63ZM602.528 45.7163C597.906 41.0497 595.607 35.469 595.607 28.92H593.607C593.607 35.9976 596.115 42.0836 601.107 47.1237L602.528 45.7163ZM595.607 28.92C595.607 22.3194 597.886 16.7401 602.458 12.1236L601.037 10.7163C596.088 15.7132 593.607 21.8006 593.607 28.92H595.607ZM602.458 12.1237C607.077 7.45943 612.632 5.14 619.177 5.14V3.14C612.096 3.14 606.031 5.6739 601.037 10.7163L602.458 12.1237ZM619.177 5.14C623.259 5.14 627.01 6.10236 630.45 8.02308L631.425 6.27691C627.678 4.18431 623.589 3.14 619.177 3.14V5.14ZM630.463 8.03047C633.959 9.91296 636.774 12.4834 638.922 15.7494L640.593 14.6506C638.26 11.1033 635.195 8.30704 631.411 6.26953L630.463 8.03047ZM639.185 14.3799C639.143 14.4093 638.924 14.5622 638.883 14.5905C638.793 14.6538 638.825 14.6315 638.734 14.6945C638.7 14.7184 638.694 14.7223 638.66 14.7462C638.647 14.7556 638.6 14.7884 638.586 14.7977C638.356 14.9584 638.231 15.0459 638.007 15.2022C637.947 15.2436 637.782 15.3591 637.724 15.3994C637.712 15.4076 637.701 15.4157 637.689 15.4239C637.677 15.432 637.666 15.4401 637.654 15.4482C637.653 15.4489 637.585 15.4962 637.585 15.4968C637.548 15.5224 637.482 15.5681 637.446 15.5934C637.408 15.6201 637.21 15.7585 637.173 15.784C637.117 15.8234 636.959 15.933 636.905 15.9713C636.893 15.9791 636.882 15.9868 636.871 15.9945C636.86 16.0022 636.849 16.01 636.838 16.0177C636.827 16.0254 636.816 16.033 636.805 16.0407C636.794 16.0484 636.783 16.0561 636.772 16.0638C636.74 16.0858 636.738 16.0877 636.706 16.1097C636.695 16.1173 636.684 16.1249 636.674 16.1325C636.663 16.1401 636.652 16.1478 636.641 16.1553C636.605 16.1806 636.417 16.3119 636.382 16.336C636.328 16.3734 636.18 16.4772 636.128 16.5134C636.093 16.5378 636.037 16.5768 636.002 16.6009C635.992 16.6081 635.982 16.6154 635.971 16.6226C635.961 16.6298 635.951 16.6371 635.94 16.6443C635.93 16.6515 635.92 16.6587 635.909 16.6659C635.899 16.6731 635.889 16.6803 635.878 16.6875C635.759 16.7708 635.751 16.776 635.634 16.8582C635.624 16.8653 635.613 16.8723 635.603 16.8793C635.593 16.8864 635.583 16.8934 635.573 16.9004C635.563 16.9074 635.553 16.9144 635.543 16.9214C635.533 16.9284 635.523 16.9354 635.513 16.9423C635.477 16.9675 635.489 16.959 635.453 16.9841C635.419 17.0083 635.428 17.0015 635.394 17.0256C635.384 17.0326 635.374 17.0395 635.364 17.0463C635.354 17.0532 635.344 17.0601 635.334 17.067C635.299 17.0918 635.311 17.0834 635.276 17.1081C635.233 17.1381 635.26 17.1191 635.217 17.149C635.207 17.1558 635.197 17.1626 635.188 17.1694C635.178 17.1762 635.168 17.183 635.159 17.1898C635.124 17.2142 635.135 17.2059 635.1 17.2303C635.058 17.2598 635.085 17.2411 635.043 17.2706C634.949 17.3363 635.022 17.2851 634.928 17.3506C634.906 17.366 634.893 17.3749 634.871 17.3902C634.862 17.3968 634.852 17.4034 634.843 17.41C634.834 17.4166 634.824 17.4232 634.815 17.4297C634.789 17.4475 634.784 17.4513 634.758 17.469C634.737 17.4842 634.724 17.4929 634.702 17.508C634.666 17.5333 634.627 17.5606 634.591 17.5855C634.535 17.6251 634.538 17.6229 634.482 17.6622C634.409 17.7132 634.337 17.7632 634.265 17.8131C634.189 17.866 634.128 17.9087 634.054 17.9606C633.953 18.0312 633.74 18.1796 633.645 18.2457C633.486 18.3568 633.409 18.411 633.256 18.5176C632.958 18.7253 632.806 18.8315 632.534 19.0215C632.456 19.0759 632.441 19.086 632.365 19.1392C632.343 19.1547 632.304 19.1816 632.282 19.1968C632.276 19.2015 632.207 19.2492 632.201 19.2536C632.084 19.3353 632.157 19.2841 632.042 19.3647C631.948 19.4302 631.98 19.408 631.887 19.4724C631.845 19.5019 631.629 19.653 631.593 19.678C631.532 19.7207 631.372 19.832 631.317 19.8703C631.31 19.8755 631.292 19.8883 631.284 19.8934C631.275 19.8996 631.26 19.9101 631.251 19.9163C631.246 19.9201 631.241 19.9239 631.235 19.9277C631.23 19.9314 631.224 19.9352 631.219 19.939C631.205 19.9485 631.2 19.9521 631.187 19.9615C631.181 19.9652 631.176 19.9689 631.171 19.9726C631.165 19.9763 631.16 19.98 631.155 19.9837C631.15 19.9874 631.144 19.9911 631.139 19.9948C631.134 19.9985 631.128 20.0021 631.123 20.0058C631.115 20.0117 631.1 20.0218 631.092 20.0277C631.08 20.0358 631.072 20.0413 631.061 20.0493C630.941 20.1327 630.936 20.1361 630.823 20.2151C630.516 20.4293 630.269 20.6021 630.063 20.7456C630.057 20.7498 630.05 20.7545 630.044 20.7587C630.041 20.7609 630.038 20.7631 630.035 20.7652C630.032 20.7674 630.029 20.7695 630.026 20.7717C630.004 20.7871 630.011 20.7818 629.989 20.7969C629.971 20.8096 629.99 20.7967 629.972 20.8093C629.969 20.8113 629.966 20.8133 629.963 20.8154C629.96 20.8174 629.957 20.8194 629.954 20.8214C629.952 20.8234 629.949 20.8254 629.946 20.8274C629.943 20.8294 629.94 20.8313 629.937 20.8333C629.935 20.8351 629.923 20.8434 629.921 20.845C629.879 20.874 629.832 20.9067 629.797 20.9312C629.752 20.9625 629.626 21.0503 629.607 21.0638C629.584 21.0798 629.557 21.0988 629.541 21.1103C629.524 21.1221 629.504 21.136 629.493 21.1434C629.489 21.1461 629.479 21.1534 629.476 21.155C629.474 21.1569 629.466 21.1625 629.464 21.1633C629.46 21.1664 629.464 21.1634 629.46 21.1662C629.457 21.1688 629.461 21.166 629.457 21.1683C629.457 21.1687 629.457 21.1687 629.456 21.169C629.456 21.1693 629.456 21.1693 629.456 21.1695C629.455 21.1696 629.455 21.1697 629.455 21.1697C629.455 21.1698 629.455 21.1698 629.455 21.1698C629.455 21.1699 629.455 21.1699 629.455 21.1699C629.455 21.1699 629.455 21.1699 630.027 21.99C630.6 22.8101 630.6 22.8101 630.6 22.81C630.6 22.81 630.6 22.81 630.6 22.81C630.6 22.8099 630.6 22.8098 630.6 22.8096C630.601 22.8094 630.601 22.809 630.602 22.8084C630.602 22.8083 630.603 22.8077 630.603 22.8075C630.604 22.8073 630.604 22.8071 630.604 22.8069C630.604 22.8067 630.605 22.8065 630.605 22.8063C630.605 22.8061 630.605 22.8059 630.606 22.8057C630.606 22.8055 630.606 22.8052 630.607 22.805C630.607 22.8047 630.608 22.8038 630.609 22.8034C630.615 22.7994 630.625 22.792 630.638 22.7835C630.671 22.7603 630.693 22.7449 630.752 22.704C630.767 22.693 630.815 22.6597 630.837 22.6443C630.851 22.6342 630.871 22.6206 630.887 22.6095C630.895 22.6039 630.905 22.5966 630.914 22.5908C630.918 22.5879 630.923 22.5842 630.928 22.5812C630.93 22.5796 630.932 22.5779 630.935 22.5763C630.937 22.5747 630.939 22.573 630.942 22.5714C630.963 22.5564 630.978 22.546 631.001 22.5299C631.016 22.5193 631.048 22.4969 631.065 22.4851C631.117 22.4488 631.149 22.4265 631.208 22.3857C631.281 22.3348 631.451 22.2156 631.55 22.147C631.585 22.1221 631.707 22.037 631.749 22.0077C631.769 21.9938 631.835 21.9482 631.856 21.9331C631.867 21.9258 631.9 21.9022 631.911 21.8946C631.946 21.8703 631.933 21.8798 631.968 21.8552C631.992 21.8383 632.058 21.792 632.084 21.774C632.107 21.7581 632.181 21.7064 632.205 21.6894C632.252 21.6569 632.409 21.5474 632.462 21.5104C632.506 21.4795 632.551 21.448 632.597 21.4159C632.607 21.4093 632.657 21.3743 632.667 21.3674C632.678 21.3593 632.69 21.3511 632.702 21.3429C632.708 21.3388 632.714 21.3347 632.72 21.3305C632.726 21.3264 632.732 21.3223 632.737 21.3181C632.757 21.3043 632.789 21.2821 632.809 21.268C632.823 21.2582 632.868 21.227 632.882 21.217C632.931 21.1827 632.981 21.1479 633.032 21.1126C633.89 20.5141 634.81 19.8721 636.073 18.9907C636.082 18.9841 636.092 18.9774 636.101 18.9708C636.111 18.9641 636.12 18.9575 636.13 18.9508C636.139 18.9441 636.149 18.9375 636.159 18.9308C636.168 18.9241 636.178 18.9174 636.187 18.9107C636.21 18.8951 636.28 18.8457 636.303 18.8299C636.348 18.7985 636.492 18.6982 636.538 18.6658C636.571 18.6428 636.744 18.5224 636.778 18.4983C636.804 18.4801 636.873 18.4319 636.9 18.4134C636.958 18.373 636.965 18.3683 637.023 18.3276C637.07 18.2944 637.223 18.1879 637.272 18.1535C637.297 18.1365 637.374 18.0825 637.399 18.0653C637.434 18.0407 637.491 18.001 637.526 17.9762C637.535 17.9703 637.647 17.8923 637.655 17.8862C637.68 17.8687 637.76 17.8132 637.785 17.7955C637.858 17.7448 637.975 17.6633 638.049 17.6115C638.05 17.6108 638.115 17.5657 638.116 17.5649C638.125 17.5587 638.174 17.5245 638.183 17.5182C638.196 17.5091 638.237 17.4804 638.25 17.4713C638.261 17.4634 638.272 17.4556 638.284 17.4477C638.295 17.4399 638.306 17.432 638.318 17.4241C638.326 17.418 638.444 17.3357 638.454 17.3292C638.48 17.3108 638.564 17.2522 638.591 17.2335C638.721 17.1425 638.737 17.1317 638.869 17.0396C638.935 16.9933 638.943 16.9879 639.009 16.9413C639.023 16.9318 639.066 16.9015 639.08 16.8919C639.092 16.8837 639.104 16.8754 639.116 16.8671C639.128 16.8589 639.139 16.8506 639.151 16.8423C639.153 16.8408 639.22 16.7941 639.223 16.7925C639.237 16.7828 639.28 16.7522 639.294 16.7424C639.334 16.7145 639.398 16.6699 639.439 16.6417C639.495 16.6027 639.673 16.4779 639.731 16.4378C639.743 16.4292 639.755 16.4207 639.768 16.4121C639.78 16.4035 639.792 16.3949 639.805 16.3863C639.817 16.3777 639.829 16.3691 639.842 16.3605C639.854 16.3519 639.866 16.3432 639.879 16.3346C639.914 16.3101 639.918 16.3073 639.953 16.2827C639.966 16.274 639.978 16.2654 639.99 16.2567C640.003 16.248 640.015 16.2393 640.028 16.2306C640.04 16.2219 640.053 16.2132 640.065 16.2045C640.078 16.1957 640.09 16.187 640.103 16.1783C640.117 16.1681 640.163 16.136 640.178 16.1257C640.207 16.1054 640.3 16.0407 640.33 16.0201L639.185 14.3799ZM630.885 21.4755C629.671 19.4525 627.999 17.8591 625.888 16.7029L624.927 18.4571C626.736 19.4475 628.144 20.7942 629.17 22.5045L630.885 21.4755ZM625.912 16.717C623.844 15.5063 621.593 14.9 619.177 14.9V16.9C621.242 16.9 623.144 17.4137 624.902 18.443L625.912 16.717ZM619.177 14.9C615.357 14.9 612.088 16.2949 609.427 19.0561L610.867 20.4439C613.153 18.0717 615.904 16.9 619.177 16.9V14.9ZM609.434 19.0495C606.773 21.7602 605.437 25.0699 605.437 28.92H607.437C607.437 25.5835 608.575 22.7798 610.861 20.4505L609.434 19.0495ZM605.437 28.92C605.437 32.7701 606.773 36.0798 609.434 38.7905L610.861 37.3895C608.575 35.0602 607.437 32.2565 607.437 28.92H605.437ZM609.434 38.7905C612.096 41.503 615.363 42.87 619.177 42.87V40.87C615.898 40.87 613.145 39.717 610.861 37.3895L609.434 38.7905ZM619.177 42.87C621.628 42.87 623.897 42.2929 625.967 41.1321L624.988 39.3879C623.231 40.3737 621.3 40.87 619.177 40.87V42.87ZM625.967 41.1321C628.027 39.9764 629.69 38.3885 630.945 36.38L629.249 35.32C628.171 37.0448 626.754 38.3969 624.988 39.3879L625.967 41.1321ZM678.749 53V54H679.749V53H678.749ZM646.829 53H645.829V54H646.829V53ZM646.829 4.77V3.77H645.829V4.77H646.829ZM678.119 4.77H679.119V3.77H678.119V4.77ZM678.119 14.99V15.99H679.119V14.99H678.119ZM658.519 14.99V13.99H657.519V14.99H658.519ZM658.519 24.23H657.519V25.23H658.519V24.23ZM675.739 24.23H676.739V23.23H675.739V24.23ZM675.739 34.24V35.24H676.739V34.24H675.739ZM658.519 34.24V33.24H657.519V34.24H658.519ZM658.519 42.78H657.519V43.78H658.519V42.78ZM678.749 42.78H679.749V41.78H678.749V42.78ZM678.749 52H646.829V54H678.749V52ZM647.829 53V4.77H645.829V53H647.829ZM646.829 5.77H678.119V3.77H646.829V5.77ZM677.119 4.77V14.99H679.119V4.77H677.119ZM678.119 13.99H658.519V15.99H678.119V13.99ZM657.519 14.99V24.23H659.519V14.99H657.519ZM658.519 25.23H675.739V23.23H658.519V25.23ZM674.739 24.23V34.24H676.739V24.23H674.739ZM675.739 33.24H658.519V35.24H675.739V33.24ZM657.519 34.24V42.78H659.519V34.24H657.519ZM658.519 43.78H678.749V41.78H658.519V43.78ZM677.749 42.78V53H679.749V42.78H677.749Z" fill="#F5F5F5"/>
<path d="M34.58 53V54H35.58V53H34.58ZM5.39 53H4.39V54H5.39V53ZM5.39 4.77V3.77H4.39V4.77H5.39ZM17.22 4.77H18.22V3.77H17.22V4.77ZM17.22 42.78H16.22V43.78H17.22V42.78ZM34.58 42.78H35.58V41.78H34.58V42.78ZM34.58 52H5.39V54H34.58V52ZM6.39 53V4.77H4.39V53H6.39ZM5.39 5.77H17.22V3.77H5.39V5.77ZM16.22 4.77V42.78H18.22V4.77H16.22ZM17.22 43.78H34.58V41.78H17.22V43.78ZM33.58 42.78V53H35.58V42.78H33.58ZM73.5405 53V54H74.5405V53H73.5405ZM41.6205 53H40.6205V54H41.6205V53ZM41.6205 4.77V3.77H40.6205V4.77H41.6205ZM72.9105 4.77H73.9105V3.77H72.9105V4.77ZM72.9105 14.99V15.99H73.9105V14.99H72.9105ZM53.3105 14.99V13.99H52.3105V14.99H53.3105ZM53.3105 24.23H52.3105V25.23H53.3105V24.23ZM70.5305 24.23H71.5305V23.23H70.5305V24.23ZM70.5305 34.24V35.24H71.5305V34.24H70.5305ZM53.3105 34.24V33.24H52.3105V34.24H53.3105ZM53.3105 42.78H52.3105V43.78H53.3105V42.78ZM73.5405 42.78H74.5405V41.78H73.5405V42.78ZM73.5405 52H41.6205V54H73.5405V52ZM42.6205 53V4.77H40.6205V53H42.6205ZM41.6205 5.77H72.9105V3.77H41.6205V5.77ZM71.9105 4.77V14.99H73.9105V4.77H71.9105ZM72.9105 13.99H53.3105V15.99H72.9105V13.99ZM52.3105 14.99V24.23H54.3105V14.99H52.3105ZM53.3105 25.23H70.5305V23.23H53.3105V25.23ZM69.5305 24.23V34.24H71.5305V24.23H69.5305ZM70.5305 33.24H53.3105V35.24H70.5305V33.24ZM52.3105 34.24V42.78H54.3105V34.24H52.3105ZM53.3105 43.78H73.5405V41.78H53.3105V43.78ZM72.5405 42.78V53H74.5405V42.78H72.5405ZM91.2543 14.99H92.2543V13.99H91.2543V14.99ZM78.7943 14.99H77.7943V15.99H78.7943V14.99ZM78.7943 4.77V3.77H77.7943V4.77H78.7943ZM115.404 4.77H116.404V3.77H115.404V4.77ZM115.404 14.99V15.99H116.404V14.99H115.404ZM102.944 14.99V13.99H101.944V14.99H102.944ZM102.944 53V54H103.944V53H102.944ZM91.2543 53H90.2543V54H91.2543V53ZM91.2543 13.99H78.7943V15.99H91.2543V13.99ZM79.7943 14.99V4.77H77.7943V14.99H79.7943ZM78.7943 5.77H115.404V3.77H78.7943V5.77ZM114.404 4.77V14.99H116.404V4.77H114.404ZM115.404 13.99H102.944V15.99H115.404V13.99ZM101.944 14.99V53H103.944V14.99H101.944ZM102.944 52H91.2543V54H102.944V52ZM92.2543 53V14.99H90.2543V53H92.2543ZM124.305 23.39L123.781 24.2417L124.401 24.6232L124.954 24.1504L124.305 23.39ZM119.755 20.59L118.946 20.0018L118.311 20.8755L119.231 21.4417L119.755 20.59ZM124.235 4.7V3.7H123.235V4.7H124.235ZM132.915 4.7H133.915V3.7H132.915V4.7ZM130.255 15.76L129.382 15.2721L129.376 15.2821L130.255 15.76ZM124.829 22.5383L120.279 19.7383L119.231 21.4417L123.781 24.2417L124.829 22.5383ZM120.563 21.1782C123.705 16.8584 125.235 11.3391 125.235 4.7H123.235C123.235 11.0342 121.778 16.1082 118.946 20.0018L120.563 21.1782ZM124.235 5.7H132.915V3.7H124.235V5.7ZM131.915 4.7C131.915 8.756 131.06 12.2697 129.382 15.2722L131.128 16.2478C132.996 12.9036 133.915 9.04399 133.915 4.7H131.915ZM129.376 15.2821C127.695 18.3716 125.784 20.8114 123.655 22.6296L124.954 24.1504C127.305 22.142 129.361 19.4951 131.133 16.2379L129.376 15.2821ZM138.083 38.65V37.65H137.083V38.65H138.083ZM149.913 38.65L150.911 38.5835L150.849 37.65H149.913V38.65ZM151.523 42.08L150.852 42.8215L150.862 42.8305L150.872 42.8393L151.523 42.08ZM160.063 42.22L159.524 41.3777L160.063 42.22ZM161.673 37.95L160.725 38.2662V38.2662L161.673 37.95ZM160.343 36.62L159.736 37.4144L160.343 36.62ZM156.983 35.01L156.667 35.9587L156.676 35.9617L156.983 35.01ZM151.313 33.12L151.629 32.1713L151.603 32.1625L151.576 32.1552L151.313 33.12ZM144.803 30.32L144.254 31.1554L144.803 30.32ZM140.883 26.54L140.013 27.033L140.023 27.0504L140.034 27.0674L140.883 26.54ZM143.473 8.27L144.122 9.03086L144.129 9.02532L143.473 8.27ZM167.553 8.2L166.893 8.95119L166.9 8.95682L167.553 8.2ZM172.173 19.19V20.19H173.173V19.19H172.173ZM160.483 19.19H159.483V20.19H160.483V19.19ZM151.663 15.76L151.063 14.96L151.053 14.9674L151.044 14.9751L151.663 15.76ZM154.813 22.48L155.115 21.5266L155.106 21.5239L155.098 21.5214L154.813 22.48ZM160.343 24.23L160.041 25.1834L160.048 25.1855L160.343 24.23ZM170.843 47.47L171.61 48.1118L171.616 48.1041L170.843 47.47ZM164.123 52.3L164.45 53.2452L164.457 53.2426L164.465 53.2398L164.123 52.3ZM142.913 49.57L142.263 50.3301L142.27 50.3355L142.913 49.57ZM138.083 39.65H149.913V37.65H138.083V39.65ZM148.915 38.7165C149.025 40.3578 149.667 41.7493 150.852 42.8215L152.194 41.3385C151.419 40.6374 150.988 39.7422 150.911 38.5835L148.915 38.7165ZM150.872 42.8393C152.104 43.8945 153.823 44.34 155.863 44.34V42.34C154.077 42.34 152.903 41.9455 152.174 41.3207L150.872 42.8393ZM155.863 44.34C157.653 44.34 159.248 43.9292 160.602 43.0623L159.524 41.3777C158.545 42.0041 157.34 42.34 155.863 42.34V44.34ZM160.602 43.0623C162.06 42.1294 162.813 40.7365 162.813 39H160.813C160.813 40.0635 160.4 40.8173 159.524 41.3777L160.602 43.0623ZM162.813 39C162.813 38.5141 162.76 38.0489 162.622 37.6338L160.725 38.2662C160.773 38.4111 160.813 38.6459 160.813 39H162.813ZM162.622 37.6338C162.496 37.2562 162.213 36.9351 161.978 36.7004C161.712 36.4348 161.364 36.1421 160.951 35.8256L159.736 37.4144C160.115 37.7046 160.386 37.9369 160.564 38.1146C160.652 38.2031 160.705 38.2661 160.734 38.3052C160.768 38.3505 160.747 38.3347 160.725 38.2662L162.622 37.6338ZM160.951 35.8256C160.033 35.1236 158.795 34.5436 157.29 34.0583L156.676 35.9617C158.065 36.4097 159.067 36.9031 159.736 37.4144L160.951 35.8256ZM157.299 34.0613L151.629 32.1713L150.997 34.0687L156.667 35.9587L157.299 34.0613ZM151.576 32.1552C149.087 31.4763 147.019 30.5808 145.353 29.4846L144.254 31.1554C146.134 32.3926 148.406 33.3637 151.05 34.0848L151.576 32.1552ZM145.353 29.4846C143.662 28.3724 142.475 27.2089 141.733 26.0126L140.034 27.0674C140.971 28.5777 142.397 29.9343 144.254 31.1554L145.353 29.4846ZM141.753 26.047C140.99 24.7009 140.468 23.4729 140.169 22.36L138.238 22.88C138.591 24.1937 139.189 25.5791 140.013 27.033L141.753 26.047ZM140.169 22.36C139.865 21.2317 139.713 20.0825 139.713 18.91H137.713C137.713 20.2575 137.888 21.5816 138.238 22.88L140.169 22.36ZM139.713 18.91C139.713 14.7988 141.184 11.5366 144.122 9.03083L142.824 7.50916C139.415 10.4168 137.713 14.2479 137.713 18.91H139.713ZM144.129 9.02532C147.09 6.45548 150.882 5.14 155.583 5.14V3.14C150.485 3.14 146.203 4.57785 142.818 7.51467L144.129 9.02532ZM155.583 5.14C160.29 5.14 164.03 6.43497 166.893 8.95116L168.213 7.44883C164.917 4.5517 160.676 3.14 155.583 3.14V5.14ZM166.9 8.95682C169.726 11.3979 171.173 14.7665 171.173 19.19H173.173C173.173 14.2801 171.54 10.3221 168.207 7.44317L166.9 8.95682ZM172.173 18.19H160.483V20.19H172.173V18.19ZM161.483 19.19C161.483 17.51 161.005 16.0761 159.888 15.0826C158.792 14.109 157.25 13.71 155.443 13.71V15.71C156.996 15.71 157.974 16.0577 158.559 16.5774C159.121 17.0772 159.483 17.8833 159.483 19.19H161.483ZM155.443 13.71C153.717 13.71 152.222 14.0906 151.063 14.96L152.263 16.56C152.971 16.0294 153.996 15.71 155.443 15.71V13.71ZM151.044 14.9751C149.908 15.8719 149.333 17.0989 149.333 18.56H151.333C151.333 17.6877 151.645 17.0481 152.283 16.5449L151.044 14.9751ZM149.333 18.56C149.333 19.7562 149.867 20.7758 150.795 21.5876C151.694 22.3744 152.968 22.9752 154.529 23.4386L155.098 21.5214C153.672 21.0981 152.706 20.6023 152.112 20.0824C151.546 19.5876 151.333 19.0905 151.333 18.56H149.333ZM154.511 23.4334L160.041 25.1834L160.645 23.2766L155.115 21.5266L154.511 23.4334ZM160.048 25.1855C164.4 26.5298 167.562 28.3684 169.631 30.6428C171.68 32.8963 172.713 35.6381 172.713 38.93H174.713C174.713 35.1752 173.518 31.9437 171.11 29.2971C168.722 26.6716 165.2 24.6835 160.638 23.2745L160.048 25.1855ZM172.713 38.93C172.713 42.0867 171.82 44.7018 170.07 46.8359L171.616 48.1041C173.693 45.5715 174.713 42.4933 174.713 38.93H172.713ZM170.076 46.8283C168.265 48.9926 166.168 50.4925 163.781 51.3602L164.465 53.2398C167.212 52.2408 169.594 50.5207 171.61 48.1117L170.076 46.8283ZM163.797 51.3548C161.343 52.2023 158.701 52.63 155.863 52.63V54.63C158.905 54.63 161.77 54.171 164.45 53.2452L163.797 51.3548ZM155.863 52.63C150.616 52.63 146.55 51.3206 143.557 48.8045L142.27 50.3355C145.716 53.2327 150.283 54.63 155.863 54.63V52.63ZM143.563 48.81C140.582 46.2609 139.083 42.9071 139.083 38.65H137.083C137.083 43.4463 138.804 47.3724 142.263 50.33L143.563 48.81Z" fill="#F5F5F5"/>
<path d="M728.63 42.92V53H696.36V46.7L715.33 24.72C716.73 23.1333 717.43 21.7333 717.43 20.52C717.43 19.54 717.033 18.6767 716.24 17.93C715.493 17.1833 714.28 16.81 712.6 16.81C710.733 16.81 709.38 17.37 708.54 18.49C707.7 19.5633 707.117 21.08 706.79 23.04L696.71 21.5C697.457 16.7867 699.277 13.1 702.17 10.44C705.063 7.73333 708.82 6.38 713.44 6.38C717.593 6.38 721.163 7.71 724.15 10.37C727.137 13.03 728.63 16.4133 728.63 20.52C728.63 24.6733 727.043 28.5 723.87 32L713.72 42.92H728.63ZM747.835 30.11C747.835 33.89 748.325 36.97 749.305 39.35C750.332 41.6833 751.918 42.85 754.065 42.85C758.032 42.85 760.015 38.6033 760.015 30.11C760.015 21.5233 758.032 17.23 754.065 17.23C751.918 17.23 750.332 18.42 749.305 20.8C748.325 23.18 747.835 26.2833 747.835 30.11ZM736.635 30.11C736.635 14.29 742.445 6.38 754.065 6.38C757.285 6.38 760.038 6.98667 762.325 8.2C764.658 9.36667 766.432 11.07 767.645 13.31C768.905 15.55 769.815 18.0467 770.375 20.8C770.935 23.5067 771.215 26.61 771.215 30.11C771.215 45.79 765.498 53.63 754.065 53.63C742.445 53.63 736.635 45.79 736.635 30.11ZM777.551 15.83L797.011 6.03V53H785.601V21.78L777.551 25.42V15.83ZM805.585 17.23V7.08H840.305L821.965 53H809.365L823.715 17.23H805.585ZM840.942 47.12C840.942 45.3 841.572 43.7833 842.832 42.57C844.138 41.3567 845.702 40.75 847.522 40.75C849.388 40.75 850.975 41.3567 852.282 42.57C853.588 43.7833 854.242 45.3 854.242 47.12C854.242 48.9867 853.588 50.55 852.282 51.81C850.975 53.0233 849.388 53.63 847.522 53.63C845.702 53.63 844.138 53.0233 842.832 51.81C841.572 50.55 840.942 48.9867 840.942 47.12Z" fill="#F5F5F5"/>
<path d="M204.08 53H192.39V4.77H212.34C217.66 4.77 221.743 6.35666 224.59 9.53C227.437 12.7033 228.86 16.4833 228.86 20.87C228.86 24.51 227.857 27.7767 225.85 30.67C223.89 33.5167 221.043 35.4067 217.31 36.34L229.07 53H215.49L205.13 36.9H204.08V53ZM211.78 14.99H204.08V26.82H211.78C213.553 26.82 214.86 26.2367 215.7 25.07C216.587 23.9033 217.03 22.5033 217.03 20.87C217.03 19.2367 216.587 17.86 215.7 16.74C214.86 15.5733 213.553 14.99 211.78 14.99ZM269.222 53H237.302V4.77H268.592V14.99H248.992V24.23H266.212V34.24H248.992V42.78H269.222V53ZM304.576 34.1L317.946 4.77H327.816L333.696 53H321.656L318.716 27.03L308.986 47.4H300.166L290.366 27.03L287.356 53H275.316L281.266 4.77H290.996L304.576 34.1ZM338.82 28.92C338.82 22.06 341.2 16.2267 345.96 11.42C350.767 6.56667 356.577 4.14 363.39 4.14C370.25 4.14 376.06 6.56667 380.82 11.42C385.627 16.2267 388.03 22.06 388.03 28.92C388.03 35.7333 385.627 41.5667 380.82 46.42C376.06 51.2267 370.25 53.63 363.39 53.63C356.623 53.63 350.837 51.2267 346.03 46.42C341.223 41.5667 338.82 35.7333 338.82 28.92ZM354.36 19.75C351.887 22.27 350.65 25.3267 350.65 28.92C350.65 32.5133 351.887 35.57 354.36 38.09C356.833 40.61 359.843 41.87 363.39 41.87C366.983 41.87 370.017 40.61 372.49 38.09C375.01 35.57 376.27 32.5133 376.27 28.92C376.27 25.3267 375.01 22.27 372.49 19.75C369.97 17.1833 366.937 15.9 363.39 15.9C359.843 15.9 356.833 17.1833 354.36 19.75ZM404.104 14.99H391.644V4.77H428.254V14.99H415.794V53H404.104V14.99ZM467.464 53H435.544V4.77H466.834V14.99H447.234V24.23H464.454V34.24H447.234V42.78H467.464V53Z" fill="#F5F5F5"/>
<path d="M1351.8 38.65V37.65H1350.8V38.65H1351.8ZM1363.63 38.65L1364.63 38.5835L1364.57 37.65H1363.63V38.65ZM1365.24 42.08L1364.57 42.8215L1364.58 42.8305L1364.59 42.8393L1365.24 42.08ZM1373.78 42.22L1373.24 41.3777H1373.24L1373.78 42.22ZM1375.39 37.95L1374.44 38.2662L1374.44 38.2662L1375.39 37.95ZM1374.06 36.62L1373.45 37.4144L1374.06 36.62ZM1370.7 35.01L1370.38 35.9587L1370.39 35.9617L1370.7 35.01ZM1365.03 33.12L1365.35 32.1713L1365.32 32.1625L1365.29 32.1552L1365.03 33.12ZM1358.52 30.32L1357.97 31.1554H1357.97L1358.52 30.32ZM1354.6 26.54L1353.73 27.033L1353.74 27.0504L1353.75 27.0674L1354.6 26.54ZM1357.19 8.27L1357.84 9.03086L1357.85 9.02532L1357.19 8.27ZM1381.27 8.2L1380.61 8.95119L1380.62 8.95682L1381.27 8.2ZM1385.89 19.19V20.19H1386.89V19.19H1385.89ZM1374.2 19.19H1373.2V20.19H1374.2V19.19ZM1365.38 15.76L1364.78 14.96L1364.77 14.9674L1364.76 14.9751L1365.38 15.76ZM1368.53 22.48L1368.83 21.5266L1368.82 21.5239L1368.81 21.5214L1368.53 22.48ZM1374.06 24.23L1373.76 25.1834L1373.76 25.1855L1374.06 24.23ZM1384.56 47.47L1385.33 48.1118L1385.33 48.1041L1384.56 47.47ZM1377.84 52.3L1378.17 53.2452L1378.17 53.2426L1378.18 53.2398L1377.84 52.3ZM1356.63 49.57L1355.98 50.3301L1355.99 50.3355L1356.63 49.57ZM1351.8 39.65H1363.63V37.65H1351.8V39.65ZM1362.63 38.7165C1362.74 40.3578 1363.38 41.7493 1364.57 42.8215L1365.91 41.3385C1365.14 40.6374 1364.71 39.7422 1364.63 38.5835L1362.63 38.7165ZM1364.59 42.8393C1365.82 43.8945 1367.54 44.34 1369.58 44.34V42.34C1367.79 42.34 1366.62 41.9455 1365.89 41.3207L1364.59 42.8393ZM1369.58 44.34C1371.37 44.34 1372.96 43.9292 1374.32 43.0623L1373.24 41.3777C1372.26 42.0041 1371.06 42.34 1369.58 42.34V44.34ZM1374.32 43.0623C1375.78 42.1294 1376.53 40.7365 1376.53 39H1374.53C1374.53 40.0635 1374.12 40.8173 1373.24 41.3777L1374.32 43.0623ZM1376.53 39C1376.53 38.5141 1376.48 38.0489 1376.34 37.6338L1374.44 38.2662C1374.49 38.4111 1374.53 38.6459 1374.53 39H1376.53ZM1376.34 37.6338C1376.21 37.2562 1375.93 36.9351 1375.69 36.7004C1375.43 36.4348 1375.08 36.1421 1374.67 35.8256L1373.45 37.4144C1373.83 37.7046 1374.1 37.9369 1374.28 38.1146C1374.37 38.2031 1374.42 38.2661 1374.45 38.3052C1374.48 38.3505 1374.46 38.3347 1374.44 38.2662L1376.34 37.6338ZM1374.67 35.8256C1373.75 35.1236 1372.51 34.5436 1371.01 34.0583L1370.39 35.9617C1371.78 36.4097 1372.78 36.9031 1373.45 37.4144L1374.67 35.8256ZM1371.02 34.0613L1365.35 32.1713L1364.71 34.0687L1370.38 35.9587L1371.02 34.0613ZM1365.29 32.1552C1362.8 31.4763 1360.74 30.5808 1359.07 29.4846L1357.97 31.1554C1359.85 32.3926 1362.12 33.3637 1364.77 34.0848L1365.29 32.1552ZM1359.07 29.4846C1357.38 28.3724 1356.19 27.2089 1355.45 26.0126L1353.75 27.0674C1354.69 28.5777 1356.11 29.9343 1357.97 31.1554L1359.07 29.4846ZM1355.47 26.047C1354.71 24.7009 1354.19 23.4729 1353.89 22.36L1351.95 22.88C1352.31 24.1937 1352.91 25.5791 1353.73 27.033L1355.47 26.047ZM1353.89 22.36C1353.58 21.2317 1353.43 20.0825 1353.43 18.91H1351.43C1351.43 20.2575 1351.6 21.5816 1351.95 22.88L1353.89 22.36ZM1353.43 18.91C1353.43 14.7988 1354.9 11.5366 1357.84 9.03083L1356.54 7.50916C1353.13 10.4168 1351.43 14.2479 1351.43 18.91H1353.43ZM1357.85 9.02532C1360.81 6.45548 1364.6 5.14 1369.3 5.14V3.14C1364.2 3.14 1359.92 4.57785 1356.53 7.51467L1357.85 9.02532ZM1369.3 5.14C1374.01 5.14 1377.75 6.43497 1380.61 8.95116L1381.93 7.44883C1378.63 4.5517 1374.39 3.14 1369.3 3.14V5.14ZM1380.62 8.95682C1383.44 11.3979 1384.89 14.7665 1384.89 19.19H1386.89C1386.89 14.2801 1385.26 10.3221 1381.92 7.44317L1380.62 8.95682ZM1385.89 18.19H1374.2V20.19H1385.89V18.19ZM1375.2 19.19C1375.2 17.51 1374.72 16.0761 1373.6 15.0826C1372.51 14.109 1370.97 13.71 1369.16 13.71V15.71C1370.71 15.71 1371.69 16.0577 1372.28 16.5774C1372.84 17.0772 1373.2 17.8833 1373.2 19.19H1375.2ZM1369.16 13.71C1367.43 13.71 1365.94 14.0906 1364.78 14.96L1365.98 16.56C1366.69 16.0294 1367.71 15.71 1369.16 15.71V13.71ZM1364.76 14.9751C1363.62 15.8719 1363.05 17.0989 1363.05 18.56H1365.05C1365.05 17.6877 1365.36 17.0481 1366 16.5449L1364.76 14.9751ZM1363.05 18.56C1363.05 19.7562 1363.58 20.7758 1364.51 21.5876C1365.41 22.3744 1366.68 22.9752 1368.25 23.4386L1368.81 21.5214C1367.39 21.0981 1366.42 20.6023 1365.83 20.0824C1365.26 19.5876 1365.05 19.0905 1365.05 18.56H1363.05ZM1368.23 23.4334L1373.76 25.1834L1374.36 23.2766L1368.83 21.5266L1368.23 23.4334ZM1373.76 25.1855C1378.12 26.5298 1381.28 28.3684 1383.35 30.6428C1385.4 32.8963 1386.43 35.6381 1386.43 38.93H1388.43C1388.43 35.1752 1387.23 31.9437 1384.83 29.2971C1382.44 26.6716 1378.92 24.6835 1374.36 23.2745L1373.76 25.1855ZM1386.43 38.93C1386.43 42.0867 1385.54 44.7018 1383.79 46.8359L1385.33 48.1041C1387.41 45.5715 1388.43 42.4933 1388.43 38.93H1386.43ZM1383.79 46.8283C1381.98 48.9926 1379.88 50.4925 1377.5 51.3602L1378.18 53.2398C1380.93 52.2408 1383.31 50.5207 1385.33 48.1117L1383.79 46.8283ZM1377.51 51.3548C1375.06 52.2023 1372.42 52.63 1369.58 52.63V54.63C1372.62 54.63 1375.49 54.171 1378.17 53.2452L1377.51 51.3548ZM1369.58 52.63C1364.33 52.63 1360.27 51.3206 1357.27 48.8045L1355.99 50.3355C1359.43 53.2327 1364 54.63 1369.58 54.63V52.63ZM1357.28 48.81C1354.3 46.2609 1352.8 42.9071 1352.8 38.65H1350.8C1350.8 43.4463 1352.52 47.3724 1355.98 50.33L1357.28 48.81ZM1395.41 53H1394.41V54H1395.41V53ZM1395.41 4.77V3.77H1394.41V4.77H1395.41ZM1407.1 4.77H1408.1V3.77H1407.1V4.77ZM1407.1 53V54H1408.1V53H1407.1ZM1396.41 53V4.77H1394.41V53H1396.41ZM1395.41 5.77H1407.1V3.77H1395.41V5.77ZM1406.1 4.77V53H1408.1V4.77H1406.1ZM1407.1 52H1395.41V54H1407.1V52ZM1442.89 4.77V3.77H1441.89V4.77H1442.89ZM1454.58 4.77H1455.58V3.77H1454.58V4.77ZM1454.58 53V54H1455.58V53H1454.58ZM1444.36 53L1443.48 53.4894L1443.77 54H1444.36V53ZM1429.59 26.68L1430.46 26.1906L1428.59 22.8546V26.68H1429.59ZM1429.59 53V54H1430.59V53H1429.59ZM1417.9 53H1416.9V54H1417.9V53ZM1417.9 4.77V3.77H1416.9V4.77H1417.9ZM1428.47 4.77L1429.34 4.28456L1429.05 3.77H1428.47V4.77ZM1442.89 30.74L1442.01 31.2254L1443.89 34.6009V30.74H1442.89ZM1442.89 5.77H1454.58V3.77H1442.89V5.77ZM1453.58 4.77V53H1455.58V4.77H1453.58ZM1454.58 52H1444.36V54H1454.58V52ZM1445.23 52.5106L1430.46 26.1906L1428.71 27.1694L1443.48 53.4894L1445.23 52.5106ZM1428.59 26.68V53H1430.59V26.68H1428.59ZM1429.59 52H1417.9V54H1429.59V52ZM1418.9 53V4.77H1416.9V53H1418.9ZM1417.9 5.77H1428.47V3.77H1417.9V5.77ZM1427.59 5.25544L1442.01 31.2254L1443.76 30.2546L1429.34 4.28456L1427.59 5.25544ZM1443.89 30.74V4.77H1441.89V30.74H1443.89ZM1498.1 35.85L1498.67 35.031L1497.81 34.4262L1497.25 35.32L1498.1 35.85ZM1507.69 42.57L1508.52 43.1194L1509.06 42.3082L1508.26 41.751L1507.69 42.57ZM1498.87 50.69L1499.35 51.5679L1499.35 51.5657L1498.87 50.69ZM1469.82 46.42L1469.11 47.1237L1469.11 47.1271L1469.82 46.42ZM1469.75 11.42L1469.04 10.7163L1469.04 10.7163L1469.75 11.42ZM1498.94 7.15L1498.45 8.02308L1498.46 8.02683L1498.46 8.03047L1498.94 7.15ZM1507.76 15.2L1508.33 16.0201L1509.13 15.4634L1508.59 14.6506L1507.76 15.2ZM1498.03 21.99L1497.17 22.5045L1497.72 23.4232L1498.6 22.8101L1498.03 21.99ZM1493.41 17.58L1492.9 18.443L1492.91 18.4502L1492.93 18.4571L1493.41 17.58ZM1478.15 19.75L1478.86 20.4505L1478.87 20.4439L1478.15 19.75ZM1478.15 38.09L1477.43 38.7905L1478.15 38.09ZM1493.48 40.26L1492.99 39.3879L1493.48 40.26ZM1497.52 36.6689L1507.11 43.389L1508.26 41.751L1498.67 35.031L1497.52 36.6689ZM1506.85 42.0206C1504.7 45.2887 1501.88 47.8845 1498.38 49.8143L1499.35 51.5657C1503.13 49.4822 1506.19 46.6646 1508.52 43.1194L1506.85 42.0206ZM1498.39 49.8121C1494.95 51.6898 1491.21 52.63 1487.18 52.63V54.63C1491.54 54.63 1495.6 53.6102 1499.35 51.5679L1498.39 49.8121ZM1487.18 52.63C1480.68 52.63 1475.14 50.333 1470.52 45.7129L1469.11 47.1271C1474.1 52.1203 1480.14 54.63 1487.18 54.63V52.63ZM1470.53 45.7163C1465.91 41.0497 1463.61 35.469 1463.61 28.92H1461.61C1461.61 35.9976 1464.12 42.0836 1469.11 47.1237L1470.53 45.7163ZM1463.61 28.92C1463.61 22.3194 1465.89 16.7401 1470.46 12.1236L1469.04 10.7163C1464.09 15.7132 1461.61 21.8006 1461.61 28.92H1463.61ZM1470.46 12.1237C1475.08 7.45943 1480.63 5.14 1487.18 5.14V3.14C1480.1 3.14 1474.03 5.6739 1469.04 10.7163L1470.46 12.1237ZM1487.18 5.14C1491.26 5.14 1495.01 6.10236 1498.45 8.02308L1499.42 6.27691C1495.68 4.18431 1491.59 3.14 1487.18 3.14V5.14ZM1498.46 8.03047C1501.96 9.91296 1504.77 12.4834 1506.92 15.7494L1508.59 14.6506C1506.26 11.1033 1503.2 8.30704 1499.41 6.26953L1498.46 8.03047ZM1507.18 14.3799C1507.14 14.4093 1506.92 14.5622 1506.88 14.5905C1506.79 14.6538 1506.82 14.6315 1506.73 14.6945C1506.7 14.7184 1506.69 14.7223 1506.66 14.7462C1506.65 14.7556 1506.6 14.7884 1506.59 14.7977C1506.36 14.9584 1506.23 15.0459 1506.01 15.2022C1505.95 15.2436 1505.78 15.3591 1505.72 15.3994C1505.71 15.4076 1505.7 15.4157 1505.69 15.4239C1505.68 15.432 1505.67 15.4401 1505.65 15.4482C1505.65 15.4489 1505.59 15.4962 1505.58 15.4968C1505.55 15.5224 1505.48 15.5681 1505.45 15.5934C1505.41 15.6201 1505.21 15.7585 1505.17 15.784C1505.12 15.8234 1504.96 15.933 1504.9 15.9713C1504.89 15.9791 1504.88 15.9868 1504.87 15.9945C1504.86 16.0022 1504.85 16.01 1504.84 16.0177C1504.83 16.0254 1504.82 16.033 1504.81 16.0407C1504.79 16.0484 1504.78 16.0561 1504.77 16.0638C1504.74 16.0858 1504.74 16.0877 1504.71 16.1097C1504.7 16.1173 1504.68 16.1249 1504.67 16.1325C1504.66 16.1401 1504.65 16.1478 1504.64 16.1553C1504.6 16.1806 1504.42 16.3119 1504.38 16.336C1504.33 16.3734 1504.18 16.4772 1504.13 16.5134C1504.09 16.5378 1504.04 16.5768 1504 16.6009C1503.99 16.6081 1503.98 16.6154 1503.97 16.6226C1503.96 16.6298 1503.95 16.6371 1503.94 16.6443C1503.93 16.6515 1503.92 16.6587 1503.91 16.6659C1503.9 16.6731 1503.89 16.6803 1503.88 16.6875C1503.76 16.7708 1503.75 16.776 1503.63 16.8582C1503.62 16.8653 1503.61 16.8723 1503.6 16.8793C1503.59 16.8864 1503.58 16.8934 1503.57 16.9004C1503.56 16.9074 1503.55 16.9144 1503.54 16.9214C1503.53 16.9284 1503.52 16.9354 1503.51 16.9423C1503.48 16.9675 1503.49 16.959 1503.45 16.9841C1503.42 17.0083 1503.43 17.0015 1503.39 17.0256C1503.38 17.0326 1503.37 17.0395 1503.36 17.0463C1503.35 17.0532 1503.34 17.0601 1503.33 17.067C1503.3 17.0918 1503.31 17.0834 1503.28 17.1081C1503.23 17.1381 1503.26 17.1191 1503.22 17.149C1503.21 17.1558 1503.2 17.1626 1503.19 17.1694C1503.18 17.1762 1503.17 17.183 1503.16 17.1898C1503.12 17.2142 1503.14 17.2059 1503.1 17.2303C1503.06 17.2598 1503.08 17.2411 1503.04 17.2706C1502.95 17.3363 1503.02 17.2851 1502.93 17.3506C1502.91 17.366 1502.89 17.3749 1502.87 17.3902C1502.86 17.3968 1502.85 17.4034 1502.84 17.41C1502.83 17.4166 1502.82 17.4232 1502.81 17.4297C1502.79 17.4475 1502.78 17.4513 1502.76 17.469C1502.74 17.4842 1502.72 17.4929 1502.7 17.508C1502.67 17.5333 1502.63 17.5606 1502.59 17.5855C1502.53 17.6251 1502.54 17.6229 1502.48 17.6622C1502.41 17.7132 1502.34 17.7632 1502.27 17.8131C1502.19 17.866 1502.13 17.9087 1502.05 17.9606C1501.95 18.0312 1501.74 18.1796 1501.65 18.2457C1501.49 18.3568 1501.41 18.411 1501.26 18.5176C1500.96 18.7253 1500.81 18.8315 1500.53 19.0215C1500.46 19.0759 1500.44 19.086 1500.36 19.1392C1500.34 19.1547 1500.3 19.1816 1500.28 19.1968C1500.28 19.2015 1500.21 19.2492 1500.2 19.2536C1500.08 19.3353 1500.16 19.2841 1500.04 19.3647C1499.95 19.4302 1499.98 19.408 1499.89 19.4724C1499.85 19.5019 1499.63 19.653 1499.59 19.678C1499.53 19.7207 1499.37 19.832 1499.32 19.8703C1499.31 19.8755 1499.29 19.8883 1499.28 19.8934C1499.28 19.8996 1499.26 19.9101 1499.25 19.9163C1499.25 19.9201 1499.24 19.9239 1499.24 19.9277C1499.23 19.9314 1499.22 19.9352 1499.22 19.939C1499.21 19.9485 1499.2 19.9521 1499.19 19.9615C1499.18 19.9652 1499.18 19.9689 1499.17 19.9726C1499.17 19.9763 1499.16 19.98 1499.15 19.9837C1499.15 19.9874 1499.14 19.9911 1499.14 19.9948C1499.13 19.9985 1499.13 20.0021 1499.12 20.0058C1499.11 20.0117 1499.1 20.0218 1499.09 20.0277C1499.08 20.0358 1499.07 20.0413 1499.06 20.0493C1498.94 20.1327 1498.94 20.1361 1498.82 20.2151C1498.52 20.4293 1498.27 20.6021 1498.06 20.7456C1498.06 20.7498 1498.05 20.7545 1498.04 20.7587C1498.04 20.7609 1498.04 20.7631 1498.03 20.7652C1498.03 20.7674 1498.03 20.7695 1498.03 20.7717C1498 20.7871 1498.01 20.7818 1497.99 20.7969C1497.97 20.8096 1497.99 20.7967 1497.97 20.8093C1497.97 20.8113 1497.97 20.8133 1497.96 20.8154C1497.96 20.8174 1497.96 20.8194 1497.95 20.8214C1497.95 20.8234 1497.95 20.8254 1497.95 20.8274C1497.94 20.8294 1497.94 20.8313 1497.94 20.8333C1497.93 20.8351 1497.92 20.8434 1497.92 20.845C1497.88 20.874 1497.83 20.9067 1497.8 20.9312C1497.75 20.9625 1497.63 21.0503 1497.61 21.0638C1497.58 21.0798 1497.56 21.0988 1497.54 21.1103C1497.52 21.1221 1497.5 21.136 1497.49 21.1434C1497.49 21.1461 1497.48 21.1534 1497.48 21.155C1497.47 21.1569 1497.47 21.1625 1497.46 21.1633C1497.46 21.1664 1497.46 21.1634 1497.46 21.1662C1497.46 21.1688 1497.46 21.166 1497.46 21.1683C1497.46 21.1687 1497.46 21.1687 1497.46 21.169C1497.46 21.1693 1497.46 21.1693 1497.46 21.1695C1497.46 21.1696 1497.46 21.1697 1497.46 21.1697C1497.46 21.1698 1497.46 21.1698 1497.46 21.1698C1497.46 21.1699 1497.46 21.1699 1497.46 21.1699C1497.46 21.1699 1497.45 21.1699 1498.03 21.99C1498.6 22.8101 1498.6 22.8101 1498.6 22.81C1498.6 22.81 1498.6 22.81 1498.6 22.81C1498.6 22.8099 1498.6 22.8098 1498.6 22.8096C1498.6 22.8094 1498.6 22.809 1498.6 22.8084C1498.6 22.8083 1498.6 22.8077 1498.6 22.8075C1498.6 22.8073 1498.6 22.8071 1498.6 22.8069C1498.6 22.8067 1498.6 22.8065 1498.6 22.8063C1498.61 22.8061 1498.61 22.8059 1498.61 22.8057C1498.61 22.8055 1498.61 22.8052 1498.61 22.805C1498.61 22.8047 1498.61 22.8038 1498.61 22.8034C1498.61 22.7994 1498.63 22.792 1498.64 22.7835C1498.67 22.7603 1498.69 22.7449 1498.75 22.704C1498.77 22.693 1498.81 22.6597 1498.84 22.6443C1498.85 22.6342 1498.87 22.6206 1498.89 22.6095C1498.89 22.6039 1498.91 22.5966 1498.91 22.5908C1498.92 22.5879 1498.92 22.5842 1498.93 22.5812C1498.93 22.5796 1498.93 22.5779 1498.93 22.5763C1498.94 22.5747 1498.94 22.573 1498.94 22.5714C1498.96 22.5564 1498.98 22.546 1499 22.5299C1499.02 22.5193 1499.05 22.4969 1499.07 22.4851C1499.12 22.4488 1499.15 22.4265 1499.21 22.3857C1499.28 22.3348 1499.45 22.2156 1499.55 22.147C1499.59 22.1221 1499.71 22.037 1499.75 22.0077C1499.77 21.9938 1499.83 21.9482 1499.86 21.9331C1499.87 21.9258 1499.9 21.9022 1499.91 21.8946C1499.95 21.8703 1499.93 21.8798 1499.97 21.8552C1499.99 21.8383 1500.06 21.792 1500.08 21.774C1500.11 21.7581 1500.18 21.7064 1500.21 21.6894C1500.25 21.6569 1500.41 21.5474 1500.46 21.5104C1500.51 21.4795 1500.55 21.448 1500.6 21.4159C1500.61 21.4093 1500.66 21.3743 1500.67 21.3674C1500.68 21.3593 1500.69 21.3511 1500.7 21.3429C1500.71 21.3388 1500.71 21.3347 1500.72 21.3305C1500.73 21.3264 1500.73 21.3223 1500.74 21.3181C1500.76 21.3043 1500.79 21.2821 1500.81 21.268C1500.82 21.2582 1500.87 21.227 1500.88 21.217C1500.93 21.1827 1500.98 21.1479 1501.03 21.1126C1501.89 20.5141 1502.81 19.8721 1504.07 18.9907C1504.08 18.9841 1504.09 18.9774 1504.1 18.9708C1504.11 18.9641 1504.12 18.9575 1504.13 18.9508C1504.14 18.9441 1504.15 18.9375 1504.16 18.9308C1504.17 18.9241 1504.18 18.9174 1504.19 18.9107C1504.21 18.8951 1504.28 18.8457 1504.3 18.8299C1504.35 18.7985 1504.49 18.6982 1504.54 18.6658C1504.57 18.6428 1504.74 18.5224 1504.78 18.4983C1504.8 18.4801 1504.87 18.4319 1504.9 18.4134C1504.96 18.373 1504.96 18.3683 1505.02 18.3276C1505.07 18.2944 1505.22 18.1879 1505.27 18.1535C1505.3 18.1365 1505.37 18.0825 1505.4 18.0653C1505.43 18.0407 1505.49 18.001 1505.53 17.9762C1505.53 17.9703 1505.65 17.8923 1505.66 17.8862C1505.68 17.8687 1505.76 17.8132 1505.79 17.7955C1505.86 17.7448 1505.97 17.6633 1506.05 17.6115C1506.05 17.6108 1506.11 17.5657 1506.12 17.5649C1506.12 17.5587 1506.17 17.5245 1506.18 17.5182C1506.2 17.5091 1506.24 17.4804 1506.25 17.4713C1506.26 17.4634 1506.27 17.4556 1506.28 17.4477C1506.29 17.4399 1506.31 17.432 1506.32 17.4241C1506.33 17.418 1506.44 17.3357 1506.45 17.3292C1506.48 17.3108 1506.56 17.2522 1506.59 17.2335C1506.72 17.1425 1506.74 17.1317 1506.87 17.0396C1506.93 16.9933 1506.94 16.9879 1507.01 16.9413C1507.02 16.9318 1507.07 16.9015 1507.08 16.8919C1507.09 16.8837 1507.1 16.8754 1507.12 16.8671C1507.13 16.8589 1507.14 16.8506 1507.15 16.8423C1507.15 16.8408 1507.22 16.7941 1507.22 16.7925C1507.24 16.7828 1507.28 16.7522 1507.29 16.7424C1507.33 16.7145 1507.4 16.6699 1507.44 16.6417C1507.49 16.6027 1507.67 16.4779 1507.73 16.4378C1507.74 16.4292 1507.76 16.4207 1507.77 16.4121C1507.78 16.4035 1507.79 16.3949 1507.8 16.3863C1507.82 16.3777 1507.83 16.3691 1507.84 16.3605C1507.85 16.3519 1507.87 16.3432 1507.88 16.3346C1507.91 16.3101 1507.92 16.3073 1507.95 16.2827C1507.97 16.274 1507.98 16.2654 1507.99 16.2567C1508 16.248 1508.02 16.2393 1508.03 16.2306C1508.04 16.2219 1508.05 16.2132 1508.07 16.2045C1508.08 16.1957 1508.09 16.187 1508.1 16.1783C1508.12 16.1681 1508.16 16.136 1508.18 16.1257C1508.21 16.1054 1508.3 16.0407 1508.33 16.0201L1507.18 14.3799ZM1498.88 21.4755C1497.67 19.4525 1496 17.8591 1493.89 16.7029L1492.93 18.4571C1494.74 19.4475 1496.14 20.7942 1497.17 22.5045L1498.88 21.4755ZM1493.91 16.717C1491.84 15.5063 1489.59 14.9 1487.18 14.9V16.9C1489.24 16.9 1491.14 17.4137 1492.9 18.443L1493.91 16.717ZM1487.18 14.9C1483.36 14.9 1480.09 16.2949 1477.43 19.0561L1478.87 20.4439C1481.15 18.0717 1483.9 16.9 1487.18 16.9V14.9ZM1477.43 19.0495C1474.77 21.7602 1473.44 25.0699 1473.44 28.92H1475.44C1475.44 25.5835 1476.57 22.7798 1478.86 20.4505L1477.43 19.0495ZM1473.44 28.92C1473.44 32.7701 1474.77 36.0798 1477.43 38.7905L1478.86 37.3895C1476.57 35.0602 1475.44 32.2565 1475.44 28.92H1473.44ZM1477.43 38.7905C1480.1 41.503 1483.36 42.87 1487.18 42.87V40.87C1483.9 40.87 1481.15 39.717 1478.86 37.3895L1477.43 38.7905ZM1487.18 42.87C1489.63 42.87 1491.9 42.2929 1493.97 41.1321L1492.99 39.3879C1491.23 40.3737 1489.3 40.87 1487.18 40.87V42.87ZM1493.97 41.1321C1496.03 39.9764 1497.69 38.3885 1498.95 36.38L1497.25 35.32C1496.17 37.0448 1494.75 38.3969 1492.99 39.3879L1493.97 41.1321ZM1546.75 53V54H1547.75V53H1546.75ZM1514.83 53H1513.83V54H1514.83V53ZM1514.83 4.77V3.77H1513.83V4.77H1514.83ZM1546.12 4.77H1547.12V3.77H1546.12V4.77ZM1546.12 14.99V15.99H1547.12V14.99H1546.12ZM1526.52 14.99V13.99H1525.52V14.99H1526.52ZM1526.52 24.23H1525.52V25.23H1526.52V24.23ZM1543.74 24.23H1544.74V23.23H1543.74V24.23ZM1543.74 34.24V35.24H1544.74V34.24H1543.74ZM1526.52 34.24V33.24H1525.52V34.24H1526.52ZM1526.52 42.78H1525.52V43.78H1526.52V42.78ZM1546.75 42.78H1547.75V41.78H1546.75V42.78ZM1546.75 52H1514.83V54H1546.75V52ZM1515.83 53V4.77H1513.83V53H1515.83ZM1514.83 5.77H1546.12V3.77H1514.83V5.77ZM1545.12 4.77V14.99H1547.12V4.77H1545.12ZM1546.12 13.99H1526.52V15.99H1546.12V13.99ZM1525.52 14.99V24.23H1527.52V14.99H1525.52ZM1526.52 25.23H1543.74V23.23H1526.52V25.23ZM1542.74 24.23V34.24H1544.74V24.23H1542.74ZM1543.74 33.24H1526.52V35.24H1543.74V33.24ZM1525.52 34.24V42.78H1527.52V34.24H1525.52ZM1526.52 43.78H1546.75V41.78H1526.52V43.78ZM1545.75 42.78V53H1547.75V42.78H1545.75Z" fill="#F5F5F5"/>
<path d="M902.58 53V54H903.58V53H902.58ZM873.39 53H872.39V54H873.39V53ZM873.39 4.77V3.77H872.39V4.77H873.39ZM885.22 4.77H886.22V3.77H885.22V4.77ZM885.22 42.78H884.22V43.78H885.22V42.78ZM902.58 42.78H903.58V41.78H902.58V42.78ZM902.58 52H873.39V54H902.58V52ZM874.39 53V4.77H872.39V53H874.39ZM873.39 5.77H885.22V3.77H873.39V5.77ZM884.22 4.77V42.78H886.22V4.77H884.22ZM885.22 43.78H902.58V41.78H885.22V43.78ZM901.58 42.78V53H903.58V42.78H901.58ZM941.54 53V54H942.54V53H941.54ZM909.62 53H908.62V54H909.62V53ZM909.62 4.77V3.77H908.62V4.77H909.62ZM940.91 4.77H941.91V3.77H940.91V4.77ZM940.91 14.99V15.99H941.91V14.99H940.91ZM921.31 14.99V13.99H920.31V14.99H921.31ZM921.31 24.23H920.31V25.23H921.31V24.23ZM938.53 24.23H939.53V23.23H938.53V24.23ZM938.53 34.24V35.24H939.53V34.24H938.53ZM921.31 34.24V33.24H920.31V34.24H921.31ZM921.31 42.78H920.31V43.78H921.31V42.78ZM941.54 42.78H942.54V41.78H941.54V42.78ZM941.54 52H909.62V54H941.54V52ZM910.62 53V4.77H908.62V53H910.62ZM909.62 5.77H940.91V3.77H909.62V5.77ZM939.91 4.77V14.99H941.91V4.77H939.91ZM940.91 13.99H921.31V15.99H940.91V13.99ZM920.31 14.99V24.23H922.31V14.99H920.31ZM921.31 25.23H938.53V23.23H921.31V25.23ZM937.53 24.23V34.24H939.53V24.23H937.53ZM938.53 33.24H921.31V35.24H938.53V33.24ZM920.31 34.24V42.78H922.31V34.24H920.31ZM921.31 43.78H941.54V41.78H921.31V43.78ZM940.54 42.78V53H942.54V42.78H940.54ZM959.254 14.99H960.254V13.99H959.254V14.99ZM946.794 14.99H945.794V15.99H946.794V14.99ZM946.794 4.77V3.77H945.794V4.77H946.794ZM983.404 4.77H984.404V3.77H983.404V4.77ZM983.404 14.99V15.99H984.404V14.99H983.404ZM970.944 14.99V13.99H969.944V14.99H970.944ZM970.944 53V54H971.944V53H970.944ZM959.254 53H958.254V54H959.254V53ZM959.254 13.99H946.794V15.99H959.254V13.99ZM947.794 14.99V4.77H945.794V14.99H947.794ZM946.794 5.77H983.404V3.77H946.794V5.77ZM982.404 4.77V14.99H984.404V4.77H982.404ZM983.404 13.99H970.944V15.99H983.404V13.99ZM969.944 14.99V53H971.944V14.99H969.944ZM970.944 52H959.254V54H970.944V52ZM960.254 53V14.99H958.254V53H960.254ZM992.305 23.39L991.781 24.2417L992.401 24.6232L992.954 24.1504L992.305 23.39ZM987.755 20.59L986.946 20.0018L986.311 20.8755L987.231 21.4417L987.755 20.59ZM992.235 4.7V3.7H991.235V4.7H992.235ZM1000.91 4.7H1001.91V3.7H1000.91V4.7ZM998.255 15.76L997.382 15.2721L997.376 15.2821L998.255 15.76ZM992.829 22.5383L988.279 19.7383L987.231 21.4417L991.781 24.2417L992.829 22.5383ZM988.563 21.1782C991.705 16.8584 993.235 11.3391 993.235 4.7H991.235C991.235 11.0342 989.778 16.1082 986.946 20.0018L988.563 21.1782ZM992.235 5.7H1000.91V3.7H992.235V5.7ZM999.915 4.7C999.915 8.756 999.06 12.2697 997.382 15.2722L999.128 16.2478C1001 12.9036 1001.91 9.04399 1001.91 4.7H999.915ZM997.376 15.2821C995.695 18.3716 993.784 20.8114 991.655 22.6296L992.954 24.1504C995.305 22.142 997.361 19.4951 999.133 16.2379L997.376 15.2821ZM1006.08 38.65V37.65H1005.08V38.65H1006.08ZM1017.91 38.65L1018.91 38.5835L1018.85 37.65H1017.91V38.65ZM1019.52 42.08L1018.85 42.8215L1018.86 42.8305L1018.87 42.8393L1019.52 42.08ZM1028.06 42.22L1027.52 41.3777L1028.06 42.22ZM1029.67 37.95L1028.72 38.2662V38.2662L1029.67 37.95ZM1028.34 36.62L1027.74 37.4144L1028.34 36.62ZM1024.98 35.01L1024.67 35.9587L1024.68 35.9617L1024.98 35.01ZM1019.31 33.12L1019.63 32.1713L1019.6 32.1625L1019.58 32.1552L1019.31 33.12ZM1012.8 30.32L1012.25 31.1554L1012.8 30.32ZM1008.88 26.54L1008.01 27.033L1008.02 27.0504L1008.03 27.0674L1008.88 26.54ZM1011.47 8.27L1012.12 9.03086L1012.13 9.02532L1011.47 8.27ZM1035.55 8.2L1034.89 8.95119L1034.9 8.95682L1035.55 8.2ZM1040.17 19.19V20.19H1041.17V19.19H1040.17ZM1028.48 19.19H1027.48V20.19H1028.48V19.19ZM1019.66 15.76L1019.06 14.96L1019.05 14.9674L1019.04 14.9751L1019.66 15.76ZM1022.81 22.48L1023.11 21.5266L1023.11 21.5239L1023.1 21.5214L1022.81 22.48ZM1028.34 24.23L1028.04 25.1834L1028.05 25.1855L1028.34 24.23ZM1038.84 47.47L1039.61 48.1118L1039.62 48.1041L1038.84 47.47ZM1032.12 52.3L1032.45 53.2452L1032.46 53.2426L1032.46 53.2398L1032.12 52.3ZM1010.91 49.57L1010.26 50.3301L1010.27 50.3355L1010.91 49.57ZM1006.08 39.65H1017.91V37.65H1006.08V39.65ZM1016.92 38.7165C1017.02 40.3578 1017.67 41.7493 1018.85 42.8215L1020.19 41.3385C1019.42 40.6374 1018.99 39.7422 1018.91 38.5835L1016.92 38.7165ZM1018.87 42.8393C1020.1 43.8945 1021.82 44.34 1023.86 44.34V42.34C1022.08 42.34 1020.9 41.9455 1020.17 41.3207L1018.87 42.8393ZM1023.86 44.34C1025.65 44.34 1027.25 43.9292 1028.6 43.0623L1027.52 41.3777C1026.55 42.0041 1025.34 42.34 1023.86 42.34V44.34ZM1028.6 43.0623C1030.06 42.1294 1030.81 40.7365 1030.81 39H1028.81C1028.81 40.0635 1028.4 40.8173 1027.52 41.3777L1028.6 43.0623ZM1030.81 39C1030.81 38.5141 1030.76 38.0489 1030.62 37.6338L1028.72 38.2662C1028.77 38.4111 1028.81 38.6459 1028.81 39H1030.81ZM1030.62 37.6338C1030.5 37.2562 1030.21 36.9351 1029.98 36.7004C1029.71 36.4348 1029.36 36.1421 1028.95 35.8256L1027.74 37.4144C1028.12 37.7046 1028.39 37.9369 1028.56 38.1146C1028.65 38.2031 1028.71 38.2661 1028.73 38.3052C1028.77 38.3505 1028.75 38.3347 1028.72 38.2662L1030.62 37.6338ZM1028.95 35.8256C1028.03 35.1236 1026.79 34.5436 1025.29 34.0583L1024.68 35.9617C1026.07 36.4097 1027.07 36.9031 1027.74 37.4144L1028.95 35.8256ZM1025.3 34.0613L1019.63 32.1713L1019 34.0687L1024.67 35.9587L1025.3 34.0613ZM1019.58 32.1552C1017.09 31.4763 1015.02 30.5808 1013.35 29.4846L1012.25 31.1554C1014.13 32.3926 1016.41 33.3637 1019.05 34.0848L1019.58 32.1552ZM1013.35 29.4846C1011.66 28.3724 1010.48 27.2089 1009.73 26.0126L1008.03 27.0674C1008.97 28.5777 1010.4 29.9343 1012.25 31.1554L1013.35 29.4846ZM1009.75 26.047C1008.99 24.7009 1008.47 23.4729 1008.17 22.36L1006.24 22.88C1006.59 24.1937 1007.19 25.5791 1008.01 27.033L1009.75 26.047ZM1008.17 22.36C1007.87 21.2317 1007.71 20.0825 1007.71 18.91H1005.71C1005.71 20.2575 1005.89 21.5816 1006.24 22.88L1008.17 22.36ZM1007.71 18.91C1007.71 14.7988 1009.18 11.5366 1012.12 9.03083L1010.82 7.50916C1007.42 10.4168 1005.71 14.2479 1005.71 18.91H1007.71ZM1012.13 9.02532C1015.09 6.45548 1018.88 5.14 1023.58 5.14V3.14C1018.48 3.14 1014.2 4.57785 1010.82 7.51467L1012.13 9.02532ZM1023.58 5.14C1028.29 5.14 1032.03 6.43497 1034.89 8.95116L1036.21 7.44883C1032.92 4.5517 1028.68 3.14 1023.58 3.14V5.14ZM1034.9 8.95682C1037.73 11.3979 1039.17 14.7665 1039.17 19.19H1041.17C1041.17 14.2801 1039.54 10.3221 1036.21 7.44317L1034.9 8.95682ZM1040.17 18.19H1028.48V20.19H1040.17V18.19ZM1029.48 19.19C1029.48 17.51 1029.01 16.0761 1027.89 15.0826C1026.79 14.109 1025.25 13.71 1023.44 13.71V15.71C1025 15.71 1025.97 16.0577 1026.56 16.5774C1027.12 17.0772 1027.48 17.8833 1027.48 19.19H1029.48ZM1023.44 13.71C1021.72 13.71 1020.22 14.0906 1019.06 14.96L1020.26 16.56C1020.97 16.0294 1022 15.71 1023.44 15.71V13.71ZM1019.04 14.9751C1017.91 15.8719 1017.33 17.0989 1017.33 18.56H1019.33C1019.33 17.6877 1019.65 17.0481 1020.28 16.5449L1019.04 14.9751ZM1017.33 18.56C1017.33 19.7562 1017.87 20.7758 1018.79 21.5876C1019.69 22.3744 1020.97 22.9752 1022.53 23.4386L1023.1 21.5214C1021.67 21.0981 1020.71 20.6023 1020.11 20.0824C1019.55 19.5876 1019.33 19.0905 1019.33 18.56H1017.33ZM1022.51 23.4334L1028.04 25.1834L1028.64 23.2766L1023.11 21.5266L1022.51 23.4334ZM1028.05 25.1855C1032.4 26.5298 1035.56 28.3684 1037.63 30.6428C1039.68 32.8963 1040.71 35.6381 1040.71 38.93H1042.71C1042.71 35.1752 1041.52 31.9437 1039.11 29.2971C1036.72 26.6716 1033.2 24.6835 1028.64 23.2745L1028.05 25.1855ZM1040.71 38.93C1040.71 42.0867 1039.82 44.7018 1038.07 46.8359L1039.62 48.1041C1041.69 45.5715 1042.71 42.4933 1042.71 38.93H1040.71ZM1038.08 46.8283C1036.27 48.9926 1034.17 50.4925 1031.78 51.3602L1032.46 53.2398C1035.21 52.2408 1037.59 50.5207 1039.61 48.1117L1038.08 46.8283ZM1031.8 51.3548C1029.34 52.2023 1026.7 52.63 1023.86 52.63V54.63C1026.91 54.63 1029.77 54.171 1032.45 53.2452L1031.8 51.3548ZM1023.86 52.63C1018.62 52.63 1014.55 51.3206 1011.56 48.8045L1010.27 50.3355C1013.72 53.2327 1018.28 54.63 1023.86 54.63V52.63ZM1011.56 48.81C1008.58 46.2609 1007.08 42.9071 1007.08 38.65H1005.08C1005.08 43.4463 1006.8 47.3724 1010.26 50.33L1011.56 48.81Z" fill="#F5F5F5"/>
<path d="M1596.63 42.92V53H1564.36V46.7L1583.33 24.72C1584.73 23.1333 1585.43 21.7333 1585.43 20.52C1585.43 19.54 1585.03 18.6767 1584.24 17.93C1583.49 17.1833 1582.28 16.81 1580.6 16.81C1578.73 16.81 1577.38 17.37 1576.54 18.49C1575.7 19.5633 1575.12 21.08 1574.79 23.04L1564.71 21.5C1565.46 16.7867 1567.28 13.1 1570.17 10.44C1573.06 7.73333 1576.82 6.38 1581.44 6.38C1585.59 6.38 1589.16 7.71 1592.15 10.37C1595.14 13.03 1596.63 16.4133 1596.63 20.52C1596.63 24.6733 1595.04 28.5 1591.87 32L1581.72 42.92H1596.63ZM1615.84 30.11C1615.84 33.89 1616.33 36.97 1617.31 39.35C1618.33 41.6833 1619.92 42.85 1622.07 42.85C1626.03 42.85 1628.02 38.6033 1628.02 30.11C1628.02 21.5233 1626.03 17.23 1622.07 17.23C1619.92 17.23 1618.33 18.42 1617.31 20.8C1616.33 23.18 1615.84 26.2833 1615.84 30.11ZM1604.64 30.11C1604.64 14.29 1610.45 6.38 1622.07 6.38C1625.29 6.38 1628.04 6.98667 1630.33 8.2C1632.66 9.36667 1634.43 11.07 1635.65 13.31C1636.91 15.55 1637.82 18.0467 1638.38 20.8C1638.94 23.5067 1639.22 26.61 1639.22 30.11C1639.22 45.79 1633.5 53.63 1622.07 53.63C1610.45 53.63 1604.64 45.79 1604.64 30.11ZM1645.55 15.83L1665.01 6.03V53H1653.6V21.78L1645.55 25.42V15.83ZM1673.59 17.23V7.08H1708.31L1689.97 53H1677.37L1691.72 17.23H1673.59ZM1708.94 47.12C1708.94 45.3 1709.57 43.7833 1710.83 42.57C1712.14 41.3567 1713.7 40.75 1715.52 40.75C1717.39 40.75 1718.98 41.3567 1720.28 42.57C1721.59 43.7833 1722.24 45.3 1722.24 47.12C1722.24 48.9867 1721.59 50.55 1720.28 51.81C1718.98 53.0233 1717.39 53.63 1715.52 53.63C1713.7 53.63 1712.14 53.0233 1710.83 51.81C1709.57 50.55 1708.94 48.9867 1708.94 47.12Z" fill="#F5F5F5"/>
<path d="M1072.08 53H1060.39V4.77H1080.34C1085.66 4.77 1089.74 6.35666 1092.59 9.53C1095.44 12.7033 1096.86 16.4833 1096.86 20.87C1096.86 24.51 1095.86 27.7767 1093.85 30.67C1091.89 33.5167 1089.04 35.4067 1085.31 36.34L1097.07 53H1083.49L1073.13 36.9H1072.08V53ZM1079.78 14.99H1072.08V26.82H1079.78C1081.55 26.82 1082.86 26.2367 1083.7 25.07C1084.59 23.9033 1085.03 22.5033 1085.03 20.87C1085.03 19.2367 1084.59 17.86 1083.7 16.74C1082.86 15.5733 1081.55 14.99 1079.78 14.99ZM1137.22 53H1105.3V4.77H1136.59V14.99H1116.99V24.23H1134.21V34.24H1116.99V42.78H1137.22V53ZM1172.58 34.1L1185.95 4.77H1195.82L1201.7 53H1189.66L1186.72 27.03L1176.99 47.4H1168.17L1158.37 27.03L1155.36 53H1143.32L1149.27 4.77H1159L1172.58 34.1ZM1206.82 28.92C1206.82 22.06 1209.2 16.2267 1213.96 11.42C1218.77 6.56667 1224.58 4.14 1231.39 4.14C1238.25 4.14 1244.06 6.56667 1248.82 11.42C1253.63 16.2267 1256.03 22.06 1256.03 28.92C1256.03 35.7333 1253.63 41.5667 1248.82 46.42C1244.06 51.2267 1238.25 53.63 1231.39 53.63C1224.62 53.63 1218.84 51.2267 1214.03 46.42C1209.22 41.5667 1206.82 35.7333 1206.82 28.92ZM1222.36 19.75C1219.89 22.27 1218.65 25.3267 1218.65 28.92C1218.65 32.5133 1219.89 35.57 1222.36 38.09C1224.83 40.61 1227.84 41.87 1231.39 41.87C1234.98 41.87 1238.02 40.61 1240.49 38.09C1243.01 35.57 1244.27 32.5133 1244.27 28.92C1244.27 25.3267 1243.01 22.27 1240.49 19.75C1237.97 17.1833 1234.94 15.9 1231.39 15.9C1227.84 15.9 1224.83 17.1833 1222.36 19.75ZM1272.1 14.99H1259.64V4.77H1296.25V14.99H1283.79V53H1272.1V14.99ZM1335.46 53H1303.54V4.77H1334.83V14.99H1315.23V24.23H1332.45V34.24H1315.23V42.78H1335.46V53Z" fill="#F5F5F5"/>
</svg>
