<svg width="100%" height="100%" viewBox="0 0 48 48" fill="none" xmlns="http://www.w3.org/2000/svg">
<path d="M43.3357 19.9885L43.2795 19.8448L37.8349 5.63569C37.7242 5.3572 37.528 5.12096 37.2747 4.96085C37.0211 4.80347 36.7254 4.72767 36.4274 4.74369C36.1295 4.7597 35.8436 4.86676 35.6084 5.05042C35.3758 5.23934 35.2071 5.49534 35.1252 5.78357L31.449 17.0309H16.563L12.8868 5.78357C12.807 5.49377 12.638 5.23649 12.4036 5.04833C12.1684 4.86468 11.8825 4.75762 11.5845 4.7416C11.2865 4.72559 10.9908 4.80139 10.7373 4.95877C10.4845 5.11952 10.2885 5.35556 10.177 5.63361L4.72207 19.8364L4.66791 19.9802C3.88415 22.028 3.78741 24.2752 4.39227 26.3828C4.99714 28.4904 6.27082 30.3443 8.02127 31.6648L8.04002 31.6794L8.09001 31.7148L16.3838 37.9258L20.487 41.0313L22.9864 42.9184C23.2788 43.1404 23.6358 43.2605 24.0028 43.2605C24.3699 43.2605 24.7269 43.1404 25.0193 42.9184L27.5187 41.0313L31.6218 37.9258L39.9657 31.6773L39.9865 31.6607C41.733 30.3399 43.0037 28.4879 43.6077 26.3831C44.2116 24.2783 44.1162 22.0344 43.3357 19.9885Z" fill="currentColor"/>
</svg>
