<svg width="100%" height="100%" viewBox="0 0 48 48" fill="none" xmlns="http://www.w3.org/2000/svg">
<path d="M32.5158 38.2889H9.8125C9.8125 41.4461 12.3495 44 15.4897 44H32.5158C35.6504 44 38.1874 41.4405 38.1874 38.2889V14.8245C38.1874 14.7118 38.0972 14.6103 37.9845 14.6103H32.7188C32.606 14.6103 32.5158 14.7061 32.5158 14.8189V38.2833V38.2889ZM32.5158 4C35.6504 4 38.1874 6.55955 38.1874 9.7167H15.4897V33.1811C15.4897 33.2939 15.3939 33.3897 15.2811 33.3897H10.0211C9.90834 33.3897 9.8125 33.2939 9.8125 33.1811V9.7167C9.8125 6.55955 12.3495 4 15.4897 4H32.5158Z" fill="currentColor"/>
</svg>
