<svg width="100%" height="100%" viewBox="0 0 48 48" fill="none" xmlns="http://www.w3.org/2000/svg">
<path fill-rule="evenodd" clip-rule="evenodd" d="M8.47351 18.0283C5.1755 21.3264 5.1755 26.6736 8.47351 29.9717L18.0283 39.5265C21.3264 42.8245 26.6736 42.8245 29.9717 39.5265L39.5265 29.9717C42.8245 26.6736 42.8245 21.3264 39.5265 18.0283L29.9717 8.47351C26.6736 5.1755 21.3264 5.1755 18.0283 8.47351L8.47351 18.0283ZM28.1802 28.1802C30.4889 25.8716 30.4889 22.1284 28.1802 19.8198C25.8716 17.5111 22.1284 17.5111 19.8198 19.8198C17.5111 22.1284 17.5111 25.8716 19.8198 28.1802C22.1284 30.4889 25.8716 30.4889 28.1802 28.1802Z" fill="currentColor"/>
</svg>
