<svg width="100%" height="100%" viewBox="0 0 48 48" fill="none" xmlns="http://www.w3.org/2000/svg">
<path d="M42.2716 32.4576L39.8811 12.0563C39.8577 11.8219 39.6937 11.6227 39.4827 11.5407L19.8196 4.04104C19.5736 3.94729 19.2923 4.0176 19.1165 4.21681L5.87501 19.509C5.69924 19.7082 5.6758 20.0012 5.8047 20.2355L19.0228 43.6836C19.14 43.8828 19.3509 44 19.5736 44C19.6673 44 19.761 43.9766 19.8548 43.9297L41.9201 33.0787C42.1662 32.9849 42.3068 32.7271 42.2716 32.4576ZM40.5608 31.0045C40.5725 31.0631 40.5491 31.1217 40.5022 31.1569C40.4553 31.192 40.3967 31.2038 40.3382 31.1803L21.7063 24.0791C21.6477 24.0557 21.6008 23.9971 21.6008 23.9385C21.6008 23.8799 21.6242 23.8096 21.6828 23.7744L38.2992 13.6382C38.3461 13.6031 38.4047 13.6031 38.4632 13.6265C38.5218 13.6499 38.5453 13.6968 38.557 13.7554L40.5608 31.0045ZM37.1039 12.5719L20.6633 22.6026C20.6048 22.6378 20.5462 22.6378 20.4876 22.6026C20.429 22.5675 20.4055 22.5206 20.4055 22.4503V6.15031C20.4055 6.09172 20.429 6.04484 20.4759 6.00969C20.4993 5.98625 20.5344 5.97453 20.5696 5.97453C20.593 5.97453 20.6165 5.97453 20.6282 5.98625L37.0688 12.2672C37.1274 12.2906 37.1742 12.3492 37.1742 12.4078C37.186 12.4664 37.1625 12.5367 37.1039 12.5719ZM20.4055 25.4853C20.4055 25.4267 20.429 25.3798 20.4759 25.3447C20.4993 25.3212 20.5344 25.3095 20.5696 25.3095C20.593 25.3095 20.6165 25.3095 20.6282 25.3212L39.2132 32.399C39.2835 32.4224 39.3187 32.481 39.3187 32.5513C39.3187 32.6217 39.2835 32.6802 39.2249 32.7154L20.6399 41.8556C20.5813 41.879 20.5227 41.879 20.4759 41.8439C20.429 41.8087 20.3938 41.7618 20.3938 41.7032V25.4853H20.4055ZM18.8705 7.29869V39.6291C18.8705 39.7229 18.8002 39.7815 18.7416 39.7932C18.683 39.8049 18.6009 39.7932 18.5541 39.7111L7.51556 20.1301C7.4804 20.0715 7.49212 19.9895 7.53899 19.9309L18.5775 7.18151C18.6127 7.13463 18.6595 7.12292 18.7064 7.12292C18.7298 7.12292 18.7533 7.12292 18.765 7.13463C18.8119 7.15807 18.8705 7.21666 18.8705 7.29869Z" fill="currentColor"/>
</svg>
