<svg width="100%" height="100%" viewBox="0 0 48 48" fill="none" xmlns="http://www.w3.org/2000/svg">
<path fill-rule="evenodd" clip-rule="evenodd" d="M31.9372 34.4877C36.949 33.8893 41.3129 30.8012 41.8613 27.9796C42.7255 23.5347 42.6542 17.1326 42.6542 17.1326C42.6542 8.45542 36.9691 5.91199 36.9691 5.91199C34.1026 4.59545 29.1804 4.04181 24.0666 4H23.941C18.8272 4.04181 13.9082 4.59545 11.0415 5.91199C11.0415 5.91199 5.35619 8.45542 5.35619 17.1326C5.35619 17.6587 5.35347 18.212 5.35064 18.788C5.34278 20.3876 5.33406 22.1624 5.38032 24.0149C5.58678 32.5007 6.93608 40.864 14.7819 42.9406C18.3994 43.8981 21.5053 44.0985 24.0067 43.961C28.5429 43.7095 31.0894 42.3421 31.0894 42.3421L30.9398 39.0509C30.9398 39.0509 27.6981 40.073 24.0576 39.9485C20.4506 39.8248 16.6428 39.5595 16.0594 35.131C16.0055 34.742 15.9786 34.3261 15.9786 33.8893C15.9786 33.8893 19.5194 34.7547 24.0067 34.9603C26.7505 35.0862 29.3237 34.7996 31.9372 34.4877ZM35.9482 28.3125V17.8058C35.9482 15.6585 35.4015 13.9521 34.3035 12.6896C33.1707 11.4272 31.6876 10.78 29.8468 10.78C27.7165 10.78 26.1034 11.5987 25.037 13.2364L24 14.9744L22.9632 13.2364C21.8967 11.5987 20.2836 10.78 18.1535 10.78C16.3124 10.78 14.8293 11.4272 13.6968 12.6896C12.5986 13.9521 12.0518 15.6585 12.0518 17.8058V28.3125H16.2144V18.1146C16.2144 15.9649 17.1188 14.8738 18.928 14.8738C20.9284 14.8738 21.9311 16.1681 21.9311 18.7275V24.3094H26.0691V18.7275C26.0691 16.1681 27.0717 14.8738 29.072 14.8738C30.8812 14.8738 31.7857 15.9649 31.7857 18.1146V28.3125H35.9482Z" fill="currentColor"/>
</svg>
