<svg width="100%" height="100%" viewBox="0 0 48 48" fill="none" xmlns="http://www.w3.org/2000/svg">
<path fill-rule="evenodd" clip-rule="evenodd" d="M6 23.4601C6 13.4276 13.8601 6.00012 24 6.00012C34.1399 6.00012 42 13.4276 42 23.4601C42 33.4926 34.1399 40.9201 24 40.9201C22.1787 40.9201 20.4313 40.6796 18.7895 40.2282C18.4704 40.1404 18.131 40.1652 17.8282 40.2988L14.2554 41.8759C13.3209 42.2885 12.2659 41.6239 12.2346 40.6026L12.1366 37.4008C12.1245 37.0062 11.947 36.6376 11.653 36.3744C8.15064 33.2423 6 28.7078 6 23.4601ZM18.4786 20.1775L13.1911 28.5662C12.6837 29.3713 13.6732 30.2785 14.4313 29.7032L20.1109 25.3927C20.4951 25.1011 21.026 25.0996 21.4119 25.389L25.6174 28.5431C26.8793 29.4896 28.6804 29.1573 29.5215 27.8228L34.809 19.434C35.3163 18.629 34.3268 17.7218 33.5687 18.297L27.8891 22.6075C27.5049 22.8991 26.974 22.9006 26.5881 22.6112L22.3827 19.4571C21.1207 18.5107 19.3196 18.843 18.4786 20.1775Z" fill="currentColor"/>
</svg>
