<svg width="100%" height="100%" viewBox="0 0 48 48" fill="none" xmlns="http://www.w3.org/2000/svg">
<path d="M43.8554 33.1163C43.5796 32.3604 43.0485 31.9519 42.4458 31.625C42.3335 31.5637 42.2313 31.5024 42.1394 31.4616C41.9555 31.3696 41.7717 31.2777 41.5878 31.1858C39.7084 30.1848 38.2375 28.9386 37.2263 27.4473C36.9403 27.0286 36.6849 26.5791 36.4807 26.1195C36.3887 25.8743 36.3989 25.7313 36.4602 25.5986C36.5215 25.4964 36.6032 25.4147 36.7054 25.3432C37.0322 25.1287 37.3591 24.9142 37.5838 24.7712C37.9822 24.5056 38.309 24.3013 38.5133 24.1583C39.2794 23.617 39.8207 23.045 40.1578 22.4015C40.6379 21.5026 40.6992 20.4505 40.3314 19.5006C39.8207 18.1523 38.5542 17.325 37.0118 17.325C36.6849 17.325 36.3683 17.3556 36.0414 17.4271C35.9597 17.4475 35.8678 17.468 35.7861 17.4884C35.7963 16.5691 35.7759 15.5987 35.6942 14.6386C35.4081 11.2781 34.2233 9.52122 32.9976 8.12186C32.2111 7.24343 31.2918 6.49778 30.2601 5.91557C28.4011 4.85328 26.2868 4.31192 23.9885 4.31192C21.6903 4.31192 19.5862 4.85328 17.7272 5.91557C16.6955 6.49778 15.7762 7.24343 14.9897 8.12186C13.764 9.52122 12.5894 11.2883 12.2932 14.6386C12.2114 15.5987 12.191 16.5691 12.2012 17.4884C12.1195 17.468 12.0378 17.4475 11.9459 17.4271C11.6292 17.3556 11.3024 17.325 10.9857 17.325C9.44337 17.325 8.17679 18.1625 7.66607 19.5006C7.29836 20.4505 7.35965 21.5026 7.83972 22.4015C8.17679 23.045 8.71815 23.617 9.48422 24.1583C9.68851 24.3013 10.0052 24.5056 10.4137 24.7712C10.6282 24.9142 10.9449 25.1185 11.2615 25.3228C11.3739 25.3943 11.4658 25.4862 11.5373 25.5986C11.5986 25.7313 11.6088 25.8743 11.5067 26.1399C11.3024 26.5893 11.0572 27.0286 10.7712 27.4371C9.78044 28.8876 8.35043 30.1235 6.53229 31.1143C5.57214 31.625 4.57114 31.9621 4.14214 33.1163C3.82549 33.9845 4.02978 34.9651 4.83671 35.8027C5.13293 36.1091 5.48021 36.3747 5.85814 36.5789C6.64464 37.0079 7.48222 37.345 8.36065 37.5799C8.54451 37.631 8.70793 37.7025 8.86115 37.8047C9.15736 38.06 9.11651 38.4482 9.50465 39.0202C9.69872 39.3164 9.95408 39.5717 10.2401 39.776C11.0674 40.348 11.9969 40.3787 12.9775 40.4195C13.8662 40.4502 14.8672 40.491 16.0214 40.869C16.5015 41.0222 16.9917 41.3286 17.5637 41.6861C18.9427 42.5339 20.8221 43.6881 23.9783 43.6881C27.1346 43.6881 29.0242 42.5237 30.4134 41.6759C30.9854 41.3286 31.4756 41.0222 31.9353 40.869C33.0793 40.491 34.0905 40.4502 34.9791 40.4195C35.9597 40.3787 36.8892 40.348 37.7166 39.776C38.0639 39.5309 38.3499 39.2244 38.5542 38.8567C38.8402 38.3767 38.8299 38.0396 39.0955 37.8047C39.2385 37.7025 39.4019 37.631 39.5654 37.5902C40.4438 37.3552 41.3018 37.0182 42.0985 36.5789C42.4969 36.3644 42.8646 36.0784 43.171 35.7414L43.1812 35.7312C43.978 34.914 44.172 33.9539 43.8554 33.1163ZM41.0567 34.6178C39.3509 35.5575 38.2069 35.4554 37.3284 36.0274C36.5726 36.5074 37.022 37.5493 36.4807 37.9272C35.8065 38.3869 33.8249 37.8966 31.2714 38.7444C29.157 39.4389 27.8189 41.4512 24.0192 41.4512C20.2195 41.4512 18.912 39.4492 16.767 38.7444C14.2135 37.8966 12.2319 38.3971 11.5577 37.9272C11.0164 37.5493 11.4556 36.5074 10.7099 36.0274C9.8213 35.4554 8.68751 35.5575 6.98172 34.6178C5.88878 34.0151 6.51186 33.6474 6.86936 33.4738C13.0592 30.481 14.05 25.8539 14.0909 25.5066C14.1419 25.0878 14.2032 24.761 13.7436 24.3422C13.3044 23.9336 11.3432 22.7181 10.7917 22.3402C9.8928 21.7069 9.49444 21.0838 9.79065 20.3075C9.99494 19.7764 10.4954 19.5721 11.0164 19.5721C11.1798 19.5721 11.3432 19.5925 11.5067 19.6232C12.4974 19.8377 13.4576 20.328 14.0092 20.471C14.0807 20.4914 14.142 20.5016 14.2135 20.5016C14.5097 20.5016 14.6118 20.3484 14.5914 20.0113C14.5301 18.9286 14.3769 16.8245 14.5505 14.8531C14.7855 12.1463 15.6537 10.798 16.6955 9.61315C17.196 9.04115 19.5351 6.56928 24.0192 6.56928C28.5033 6.56928 30.8424 9.03093 31.3429 9.60293C32.3847 10.7878 33.2529 12.1361 33.4879 14.8429C33.6615 16.8142 33.5083 18.9184 33.4368 20.0011C33.4164 20.3586 33.5185 20.4914 33.8147 20.4914C33.8862 20.4914 33.9475 20.4812 34.019 20.4608C34.5706 20.328 35.5307 19.8275 36.5215 19.613C36.6849 19.5721 36.8484 19.5619 37.0118 19.5619C37.5327 19.5619 38.0332 19.7662 38.2375 20.2973C38.5337 21.0736 38.1354 21.6967 37.2365 22.33C36.6952 22.7079 34.734 23.9234 34.2846 24.332C33.8249 24.7508 33.8862 25.0776 33.9373 25.4964C33.9781 25.8437 34.9689 30.4708 41.1588 33.4636C41.5265 33.6372 42.1394 34.0151 41.0567 34.6178Z" fill="currentColor"/>
</svg>
