<svg width="100%" height="100%" viewBox="0 0 48 48" fill="none" xmlns="http://www.w3.org/2000/svg">
<path d="M17.5468 26.0266C17.5468 26.7281 17.3388 27.4138 16.9491 27.9971C16.5593 28.5803 16.0054 29.035 15.3573 29.3034C14.7092 29.5718 13.9961 29.6421 13.3081 29.5052C12.62 29.3684 11.9881 29.0306 11.492 28.5345C10.996 28.0385 10.6582 27.4065 10.5214 26.7185C10.3845 26.0305 10.4547 25.3174 10.7232 24.6693C10.9916 24.0212 11.4462 23.4673 12.0295 23.0775C12.6128 22.6878 13.2985 22.4798 14 22.4798C14.9407 22.4798 15.8428 22.8535 16.508 23.5186C17.1731 24.1838 17.5468 25.0859 17.5468 26.0266ZM33.9911 22.4798C33.2896 22.4798 32.6039 22.6878 32.0206 23.0775C31.4374 23.4673 30.9828 24.0212 30.7143 24.6693C30.4459 25.3174 30.3756 26.0305 30.5125 26.7185C30.6493 27.4065 30.9871 28.0385 31.4832 28.5345C31.9792 29.0306 32.6112 29.3684 33.2992 29.5052C33.9872 29.6421 34.7003 29.5718 35.3484 29.3034C35.9965 29.035 36.5505 28.5803 36.9402 27.9971C37.3299 27.4138 37.5379 26.7281 37.5379 26.0266C37.5377 25.0864 37.1641 24.1848 36.4994 23.52C35.8347 22.8551 34.9333 22.4813 33.9931 22.4808L33.9911 22.4798ZM43.9911 26.0266C43.9911 31.5463 39.5123 36.0212 33.9911 36.0212C31.4726 36.0253 29.0461 35.0747 27.2005 33.3611L24 36.8433L20.798 33.3571C18.9525 35.0727 16.5251 36.0246 14.0054 36.0212C8.48818 36.0212 4.01084 31.5463 4.01084 26.0266C4.00896 24.6361 4.29804 23.2605 4.8595 21.9884C5.42096 20.7162 6.24237 19.5756 7.27094 18.6399L4 15.0813H11.267C15.0244 12.5241 19.4643 11.1567 24.0094 11.1567C28.5544 11.1567 32.9943 12.5241 36.7517 15.0813H44L40.7296 18.6399C41.7585 19.5755 42.5803 20.716 43.1421 21.9881C43.7039 23.2603 43.9932 24.6359 43.9916 26.0266H43.9911ZM20.7665 26.0266C20.7665 24.6888 20.3698 23.381 19.6265 22.2686C18.8833 21.1563 17.8268 20.2893 16.5908 19.7774C15.3548 19.2654 13.9948 19.1315 12.6827 19.3925C11.3706 19.6536 10.1653 20.2978 9.21939 21.2439C8.27344 22.1899 7.62927 23.3952 7.36833 24.7073C7.1074 26.0194 7.24142 27.3795 7.75345 28.6154C8.26548 29.8514 9.13252 30.9077 10.2449 31.6509C11.3573 32.3941 12.6651 32.7907 14.003 32.7906C14.8912 32.7907 15.7708 32.6158 16.5915 32.2759C17.4122 31.936 18.1579 31.4377 18.786 30.8096C19.4141 30.1815 19.9123 29.4358 20.2522 28.6151C20.5921 27.7945 20.7671 26.9149 20.767 26.0266H20.7665ZM31.5054 15.9281C29.1268 14.9371 26.5755 14.4269 23.9988 14.4269C21.422 14.4269 18.8707 14.9371 16.4921 15.9281C20.7626 17.5625 24 21.3803 24 25.8315C24 21.3808 27.2369 17.5625 31.5059 15.9286L31.5054 15.9281ZM40.7566 26.0266C40.7566 24.6888 40.3599 23.381 39.6167 22.2686C38.8734 21.1563 37.817 20.2893 36.581 19.7774C35.345 19.2654 33.9849 19.1315 32.6728 19.3925C31.3607 19.6536 30.1555 20.2978 29.2095 21.2439C28.2636 22.1899 27.6194 23.3952 27.3585 24.7073C27.0975 26.0194 27.2316 27.3795 27.7436 28.6154C28.2556 29.8514 29.1227 30.9077 30.2351 31.6509C31.3475 32.3941 32.6553 32.7907 33.9931 32.7906C35.787 32.7906 37.5075 32.078 38.776 30.8095C40.0445 29.541 40.7571 27.8205 40.7571 26.0266H40.7566Z" fill="currentColor"/>
</svg>
