<svg width="100%" height="100%" viewBox="0 0 48 48" fill="none" xmlns="http://www.w3.org/2000/svg">
<path d="M36.8342 4C28.806 5.10924 21.3928 13.2428 17.4777 19.7655C11.408 29.878 10.3575 44.0576 10.8653 43.9996C11.1749 44.0652 14.8222 36.0183 16.719 32.9834C19.7539 31.0867 23.3578 28.2415 23.3578 28.2415C23.3578 28.2415 18.2087 30.0078 18.6158 29.3796C19.3533 28.2415 20.4339 27.1327 20.4339 27.1327C29.025 24.2678 30.913 19.7655 30.913 19.7655C30.913 19.7655 28.4122 20.3933 27.3964 20.5091C26.0421 20.6633 25.2127 20.6205 24.6855 20.5091C26.6549 18.2268 28.3625 17.0321 30.1862 16.4814C31.6713 15.9693 34.3787 14.2736 36.2559 12.6878C37.8124 10.1588 37.1478 6.75254 36.8342 4Z" fill="currentColor"/>
<path d="M30.3759 43.6055C32.1568 43.6055 33.6004 42.1618 33.6004 40.3809C33.6004 38.6001 32.1568 37.1564 30.3759 37.1564C28.595 37.1564 27.1514 38.6001 27.1514 40.3809C27.1514 42.1618 28.595 43.6055 30.3759 43.6055Z" fill="currentColor"/>
</svg>
