<svg width="100%" height="100%" viewBox="0 0 48 48" fill="none" xmlns="http://www.w3.org/2000/svg">
<path d="M18.5013 29.2378L20.3431 28.8122C20.3819 28.8033 20.4458 28.7886 20.524 28.7633C21.0322 28.6265 21.4677 28.298 21.7388 27.8464C22.0099 27.3949 22.0954 26.8559 21.9773 26.343C21.9747 26.3317 21.9723 26.321 21.9697 26.3098C21.9092 26.0639 21.8032 25.8315 21.6572 25.6248C21.4508 25.3628 21.1954 25.1438 20.9052 24.9798C20.5636 24.785 20.2061 24.6193 19.8365 24.4849L17.817 23.7477C16.6837 23.3264 15.5504 22.9156 14.4065 22.515C13.6647 22.251 13.0361 22.0193 12.49 21.8504C12.3869 21.8186 12.2732 21.7869 12.1807 21.755C11.5205 21.5526 11.0566 21.4687 10.664 21.4659C10.4018 21.4563 10.1406 21.504 9.89855 21.6055C9.64633 21.7143 9.41981 21.8751 9.2338 22.0774C9.14127 22.1826 9.05428 22.2926 8.97317 22.4067C8.89706 22.5232 8.82726 22.6435 8.76408 22.7674C8.6945 22.9004 8.63471 23.0381 8.58518 23.1796C8.21036 24.2876 8.02366 25.4505 8.03282 26.62C8.03958 27.6773 8.06798 29.0342 8.64911 29.9541C8.78914 30.1902 8.97706 30.3943 9.20076 30.5532C9.61476 30.839 10.0331 30.8767 10.4684 30.9081C11.1188 30.9547 11.7489 30.7949 12.3771 30.6498L18.4961 29.236L18.5013 29.2378Z" fill="currentColor"/>
<path d="M39.0502 19.459C38.5473 18.4036 37.8712 17.44 37.05 16.6084C36.9439 16.5028 36.8301 16.4051 36.7097 16.3161C36.5984 16.2327 36.4829 16.1551 36.3635 16.0838C36.2408 16.0165 36.1145 15.9558 35.9854 15.902C35.7299 15.8017 35.4561 15.7565 35.1821 15.7693C34.92 15.7842 34.6641 15.8561 34.4324 15.9798C34.0812 16.1544 33.7011 16.4351 33.1956 16.9051C33.1257 16.9744 33.0379 17.0527 32.9592 17.1265C32.542 17.5186 32.0781 18.0021 31.526 18.5651C30.6731 19.427 29.833 20.2937 28.9982 21.1698L27.5046 22.7187C27.2312 23.0018 26.9821 23.3075 26.7602 23.6326C26.5711 23.9073 26.4372 24.2163 26.3663 24.5424C26.3253 24.7922 26.3312 25.0477 26.384 25.2953C26.3866 25.3066 26.3891 25.3173 26.3917 25.3285C26.5098 25.8416 26.822 26.2887 27.2631 26.5755C27.704 26.8626 28.2391 26.9671 28.7558 26.8669C28.8376 26.8551 28.9011 26.841 28.9398 26.8316L36.9034 24.9916C37.531 24.8464 38.1679 24.7136 38.7318 24.3863C39.1099 24.167 39.4697 23.9496 39.7164 23.5111C39.8482 23.2701 39.928 23.0041 39.9507 22.7305C40.0728 21.6452 39.5062 20.4126 39.0502 19.459Z" fill="currentColor"/>
<path d="M24.7969 22.8078C25.374 22.0828 25.3726 21.0022 25.4242 20.1188C25.5979 17.1671 25.7808 14.2151 25.9257 11.2618C25.9811 10.1432 26.1016 9.0397 26.035 7.91257C25.9802 6.98274 25.9735 5.91516 25.3864 5.15209C24.3501 3.80647 22.1404 3.91707 20.6326 4.1258C20.1708 4.18991 19.7081 4.2761 19.2492 4.38628C18.7902 4.49646 18.336 4.61679 17.8915 4.75912C16.4448 5.23302 14.4109 6.1029 14.0665 7.76989C13.8724 8.7123 14.3324 9.67631 14.6894 10.5363C15.122 11.5789 15.7129 12.518 16.2515 13.4994C17.6754 16.0902 19.1257 18.6649 20.5719 21.2423C21.0038 22.0117 21.4745 22.9862 22.3101 23.3848C22.3653 23.4089 22.4217 23.4303 22.4791 23.4486C22.8538 23.5905 23.2623 23.6179 23.6526 23.5272C23.6762 23.5218 23.6992 23.5165 23.7223 23.5111C24.0827 23.4131 24.4091 23.2171 24.6652 22.9448C24.7115 22.9014 24.7554 22.8557 24.7969 22.8078Z" fill="currentColor"/>
<path d="M24.1059 30.71C23.8806 30.3932 23.561 30.1557 23.1926 30.0316C22.8242 29.9075 22.426 29.9029 22.0548 30.0191C21.9677 30.0479 21.8827 30.0833 21.8006 30.1245C21.6737 30.1891 21.5526 30.2645 21.4386 30.3502C21.1067 30.596 20.8272 30.9155 20.5728 31.236C20.5082 31.3176 20.4493 31.4265 20.3725 31.4963L19.0916 33.2584C18.3655 34.2455 17.6495 35.235 16.9395 36.2404C16.4762 36.8894 16.0755 37.4375 15.759 37.9225C15.699 38.0137 15.6367 38.1157 15.5797 38.197C15.2003 38.7839 14.9855 39.2123 14.8752 39.5939C14.7924 39.8475 14.7662 40.1161 14.7984 40.3808C14.8337 40.6566 14.9265 40.9216 15.0709 41.1591C15.1477 41.2782 15.2304 41.3934 15.3188 41.5041C15.4107 41.6107 15.5082 41.7122 15.611 41.8082C15.7209 41.9128 15.8383 42.0094 15.9624 42.0968C16.8466 42.7119 17.8145 43.1539 18.8326 43.4953C19.6798 43.7766 20.5605 43.9449 21.4518 43.9959C21.6034 44.0037 21.7554 44.0003 21.9066 43.9861C22.0467 43.974 22.1861 43.9544 22.3241 43.9275C22.4621 43.8954 22.5983 43.8557 22.7321 43.809C22.9923 43.7116 23.2294 43.5608 23.4278 43.3662C23.6156 43.178 23.7602 42.9512 23.8514 42.7014C23.9994 42.3323 24.0968 41.8637 24.1608 41.168C24.1665 41.0692 24.1806 40.9505 24.1904 40.8416C24.2409 40.2645 24.2641 39.5864 24.3012 38.7892C24.3639 37.5631 24.413 36.3423 24.4518 35.1182C24.4518 35.1182 24.5343 32.9427 24.5341 32.9415C24.553 32.4402 24.5375 31.8846 24.3985 31.3855C24.3374 31.1461 24.2386 30.9183 24.1059 30.71Z" fill="currentColor"/>
<path d="M38.5649 34.1163C38.2974 33.8231 37.9186 33.5308 37.3211 33.1694C37.2349 33.1213 37.1339 33.0571 37.0406 33.0012C36.5431 32.702 35.9438 32.3872 35.2438 32.0071C34.1685 31.4167 33.0923 30.8412 32.0061 30.2704L30.0868 29.2525C29.9874 29.2233 29.8863 29.1514 29.7925 29.1063C29.4239 28.9299 29.0329 28.7653 28.6272 28.6899C28.4873 28.663 28.3454 28.6483 28.2031 28.6458C28.1112 28.6447 28.0195 28.6503 27.9285 28.6625C27.5447 28.722 27.1895 28.901 26.9133 29.1745C26.6372 29.4477 26.4543 29.8012 26.3906 30.1845C26.3614 30.4284 26.3703 30.6751 26.4171 30.9163C26.5109 31.427 26.7389 31.9321 26.9748 32.3747L27.9998 34.2956C28.57 35.3789 29.1472 36.4561 29.739 37.5299C30.1206 38.2302 30.4383 38.8297 30.7358 39.3265C30.7923 39.4199 30.8561 39.5204 30.9044 39.607C31.2665 40.2042 31.5576 40.5802 31.8526 40.8498C32.0436 41.0343 32.2728 41.1748 32.5237 41.2615C32.7875 41.3489 33.0669 41.38 33.3435 41.3526C33.4843 41.3359 33.624 41.3117 33.762 41.28C33.8981 41.2435 34.0322 41.2 34.1636 41.1494C34.3056 41.096 34.4435 41.0323 34.5761 40.9588C35.3554 40.5219 36.0736 39.9842 36.7124 39.3595C37.4784 38.6056 38.1555 37.7837 38.6823 36.8426C38.7556 36.7094 38.8189 36.5711 38.872 36.4289C38.9218 36.2972 38.9648 36.1631 39.0009 36.027C39.0319 35.8888 39.0558 35.7489 39.0724 35.6083C39.0987 35.3317 39.0665 35.0531 38.9782 34.7898C38.8913 34.5378 38.7501 34.3077 38.5649 34.1163Z" fill="currentColor"/>
</svg>
